<?xml version="1.0" standalone="no"?>
<!DOCTYPE svg PUBLIC "-//W3C//DTD SVG 1.1//EN" "http://www.w3.org/Graphics/SVG/1.1/DTD/svg11.dtd" >
<svg xmlns="http://www.w3.org/2000/svg">
<metadata>Generated by IcoMoon</metadata>
<defs>
<font id="icomoon" horiz-adv-x="1024">
<font-face units-per-em="1024" ascent="960" descent="-64" />
<missing-glyph horiz-adv-x="1024" />
<glyph unicode="&#x20;" horiz-adv-x="512" d="" />
<glyph unicode="&#xe900;" glyph-name="icon_arrow-down" d="M211.2 665.6c32 0 612.267 0 635.733 0 29.867 0 51.2-23.467 34.133-44.8-12.8-17.067-292.267-373.333-317.867-405.333-14.933-19.2-53.333-19.2-68.267 0-17.067 21.333-298.667 379.733-317.867 405.333-14.933 19.2 2.133 44.8 34.133 44.8z" />
<glyph unicode="&#xe901;" glyph-name="icon_arrow-left" d="M731.733 765.867c0-32 0-612.267 0-635.733 0-29.867-23.467-51.2-44.8-34.133-17.067 12.8-373.333 292.267-405.333 317.867-19.2 14.933-19.2 53.333 0 68.267 21.333 17.067 379.733 298.667 405.333 317.867 19.2 14.933 44.8-2.133 44.8-34.133z" />
<glyph unicode="&#xe902;" glyph-name="icon_arrow-right" d="M315.733 130.133c0 32 0 612.267 0 635.733 0 29.867 23.467 51.2 44.8 34.133 17.067-12.8 373.333-292.267 405.333-317.867 19.2-14.933 19.2-53.333 0-68.267-21.333-17.067-379.733-298.667-405.333-317.867-21.333-14.933-44.8 2.133-44.8 34.133z" />
<glyph unicode="&#xe903;" glyph-name="icon_arrow-up" d="M825.6 221.867c-32 0-612.267 0-635.733 0-29.867 0-51.2 23.467-34.133 44.8 14.933 17.067 294.4 373.333 317.867 405.333 14.933 19.2 53.333 19.2 68.267 0 17.067-21.333 298.667-379.733 317.867-405.333 14.933-19.2-2.133-44.8-34.133-44.8z" />
<glyph unicode="&#xe904;" glyph-name="icon_back" d="M693.333 98.133l-46.933-46.933-405.333 403.2 46.933 46.933 356.267 358.4 49.067-49.067-358.4-356.267 358.4-356.267z" />
<glyph unicode="&#xe905;" glyph-name="icon_bag-a" d="M512 753.067c-44.8 0-91.733-32-93.867-104.533h192c-4.267 70.4-53.333 104.533-98.133 104.533zM360.533 627.2l-40.533-362.667h384l-42.667 362.667h-300.8zM456.533 535.467h-42.667v42.667h42.667v-42.667zM605.867 535.467h-42.667v42.667h42.667v-42.667zM512 829.867c-211.2 0-384-172.8-384-384s172.8-384 384-384c211.2 0 384 172.8 384 384s-172.8 384-384 384zM296.533 243.2l44.8 405.333h53.333c2.133 85.333 61.867 125.867 117.333 125.867 57.6 0 115.2-42.667 117.333-125.867h51.2l49.067-405.333h-433.067z" />
<glyph unicode="&#xe906;" glyph-name="icon-voice-b" d="M512 928c-264.533 0-480-215.467-480-480s215.467-480 480-480c264.533 0 480 215.467 480 480s-215.467 480-480 480zM571.733 185.6h-44.8l-113.067 136.533h-160v228.267h136.533l136.533 160h44.8v-524.8zM633.6 334.933v221.867c12.8-17.067 32-51.2 32-117.333s-21.333-93.867-32-104.533zM667.733 256v44.8c21.333 19.2 46.933 59.733 46.933 140.8s-27.733 128-46.933 151.467v46.933c23.467-19.2 78.933-74.667 78.933-200.533 0-132.267-59.733-172.8-78.933-183.467z" />
<glyph unicode="&#xe907;" glyph-name="icon_bottle-b-selected" d="M657.067 633.6h-21.333v40.533h83.2c4.267 0 0 27.733 0 61.867v21.333c0 34.133-27.733 61.867-61.867 61.867h-290.133c-34.133 0-61.867-27.733-61.867-61.867v-21.333c0-34.133 0-61.867 0-61.867h83.2v-40.533h-21.333c-91.733 0-104.533-108.8-104.533-145.067 0-19.2 0-373.333 0-373.333 0-44.8 36.267-83.2 83.2-83.2h332.8c44.8 0 83.2 36.267 83.2 83.2v373.333c0 91.733-51.2 145.067-104.533 145.067z" />
<glyph unicode="&#xe908;" glyph-name="icon_bag-c" d="M748.8 640h-70.4c-2.133 113.067-83.2 170.667-160 170.667s-155.733-53.333-160-170.667h-74.667l-61.867-554.667h590.933l-64 554.667zM518.4 782.933c61.867 0 128-44.8 132.267-142.933h-262.4c2.133 98.133 68.267 142.933 130.133 142.933zM311.467 610.133h411.733l59.733-494.933h-526.933l55.467 494.933zM588.8 544h57.6v-57.6h-57.6v57.6zM386.133 544h57.6v-57.6h-57.6v57.6z" />
<glyph unicode="&#xe909;" glyph-name="icon_bottle-a" d="M676.267 637.867v55.467h29.867c4.267 0 0 25.6 0 59.733v19.2c0 32-25.6 59.733-57.6 59.733h-273.067c-32 0-57.6-25.6-57.6-59.733v-19.2c0-32 0-59.733 0-59.733h32v-55.467c-53.333-14.933-74.667-70.4-83.2-115.2h-4.267v-341.333h2.133v-44.8c0-51.2 42.667-93.867 93.867-93.867h311.467c51.2 0 93.867 42.667 93.867 93.867v352c-2.133 42.667-27.733 128-87.467 149.333zM296.533 492.8h245.333v-279.467h-245.333v277.333c0 0 0 0 0 2.133zM729.6 136.533c0-34.133-27.733-61.867-61.867-61.867h-309.333c-34.133 0-61.867 27.733-61.867 61.867v44.8h277.333v341.333h-275.2c6.4 36.267 25.6 81.067 68.267 87.467l12.8 2.133v76.8h264.533v-76.8l12.8-2.133c46.933-8.533 72.533-83.2 72.533-121.6v-352z" />
<glyph unicode="&#xe90a;" glyph-name="icon-notebook-f" d="M844.8 160v482.133l-198.4 198.4h-349.867c-40.533 0-68.267-10.667-87.467-29.867-17.067-21.333-19.2-42.667-17.067-49.067v-155.733h51.2v157.867c0 0 0 6.4 4.267 10.667 8.533 8.533 25.6 12.8 46.933 12.8h302.933v-132.267l2.133-4.267c8.533-19.2 36.267-53.333 81.067-53.333h113.067v-437.333c0 0 0-17.067-12.8-29.867s-36.267-19.2-66.133-19.2h-288v-51.2h288c46.933 0 81.067 12.8 104.533 36.267 27.733 27.733 25.6 61.867 25.6 64zM678.4 648.533c-17.067 0-25.6 12.8-29.867 19.2v96l115.2-115.2h-85.333zM428.8 411.733h288v-25.6h-288v25.6zM428.8 281.6h288v-25.6h-288v25.6zM204.8 66.133l78.933 51.2 78.933-51.2v234.667h-157.867zM388.267 456.533c0-57.732-46.801-104.533-104.533-104.533s-104.533 46.801-104.533 104.533c0 57.732 46.801 104.533 104.533 104.533s104.533-46.801 104.533-104.533z" />
<glyph unicode="&#xe90b;" glyph-name="icon_bottle-c" d="M573.867 776.533c25.6 0 46.933-21.333 46.933-46.933s-21.333-46.933-46.933-46.933h23.467l64-102.4c29.867-14.933 51.2-46.933 51.2-83.2v-324.267c0-51.2-40.533-91.733-91.733-91.733h-256c-51.2 0-91.733 40.533-91.733 91.733v326.4c0 36.267 21.333 68.267 51.2 83.2l64 102.4h23.467c-25.6 0-46.933 21.333-46.933 46.933s21.333 46.933 46.933 46.933h162.133zM573.867 823.467h-162.133c-51.2 0-91.733-42.667-91.733-91.733 0-17.067 4.267-34.133 12.8-49.067l-40.533-66.133c-40.533-25.6-64-68.267-64-117.333v-324.267c0-76.8 61.867-138.667 138.667-138.667h256c76.8 0 138.667 61.867 138.667 138.667v324.267c0 49.067-25.6 91.733-64 117.333l-44.8 66.133c8.533 14.933 12.8 29.867 12.8 49.067 0 49.067-40.533 91.733-91.733 91.733v0z" />
<glyph unicode="&#xe90c;" glyph-name="icon-voice-a" d="M279.467 633.6h-247.467v-411.733h288l206.933-247.467h81.067v947.2h-81.067zM793.6 861.867c-10.667 4.267-23.467 2.133-27.733-8.533s-2.133-23.467 8.533-27.733c2.133 0 177.067-96 177.067-396.8 0-296.533-166.4-352-172.8-354.133-10.667-4.267-17.067-14.933-12.8-25.6 2.133-8.533 10.667-14.933 19.2-14.933 2.133 0 4.267 0 6.4 0 8.533 2.133 202.667 64 202.667 392.533-2.133 326.4-194.133 430.933-200.533 435.2zM844.8 435.2c0 215.467-108.8 285.867-113.067 288-8.533 6.4-21.333 2.133-27.733-6.4s-4.267-21.333 6.4-27.733c4.267-2.133 93.867-61.867 93.867-253.867 0-187.733-85.333-224-89.6-224-10.667-4.267-17.067-14.933-12.8-25.6 2.133-8.533 10.667-12.8 19.2-12.8 2.133 0 4.267 0 6.4 2.133 6.4-2.133 117.333 40.533 117.333 260.267z" />
<glyph unicode="&#xe90d;" glyph-name="icon-user-f" d="M804.267 260.267c49.067 34.133 81.067 91.733 81.067 155.733 0 85.333-55.467 157.867-130.133 179.2-17.067 119.467-119.467 211.2-243.2 211.2-121.6 0-224-89.6-241.067-206.933-76.8-21.333-132.267-93.867-132.267-181.333 0-66.133 32-123.733 81.067-157.867-10.667-23.467-21.333-49.067-29.867-76.8-19.2-68.267-12.8-96-12.8-96h42.667c2.133 34.133 6.4 76.8 14.933 108.8 4.267 14.933 21.333 49.067 44.8 85.333-57.6 17.067-98.133 70.4-98.133 136.533 0 59.733 36.267 110.933 85.333 132.267 4.267-87.467 55.467-164.267 128-204.8-17.067-38.4-29.867-76.8-32-93.867-19.2-96-10.667-147.2-10.667-147.2h46.933c-2.133 27.733-2.133 81.067 8.533 145.067 10.667 46.933 32 100.267 44.8 128-78.933 25.6-134.4 100.267-134.4 185.6 0 108.8 87.467 196.267 196.267 196.267s196.267-87.467 196.267-196.267c0-87.467-57.6-162.133-136.533-187.733v0c0 0 44.8-98.133 53.333-142.933 6.4-44.8 6.4-98.133 6.4-128h40.533c0 0 10.667 81.067-10.667 149.333-12.8 44.8-32 87.467-34.133 93.867 72.533 38.4 123.733 115.2 130.133 202.667 49.067-21.333 83.2-70.4 83.2-130.133 0-64-42.667-119.467-98.133-134.4 23.467-36.267 40.533-70.4 44.8-85.333 8.533-32 12.8-74.667 14.933-108.8h42.667c0 0 6.4 27.733-12.8 96-8.533 23.467-19.2 49.067-29.867 72.533z" />
<glyph unicode="&#xe90e;" glyph-name="icon-userinfo" d="M904.533 241.067v401.067c0 27.733-10.667 42.667-19.2 51.2-14.933 12.8-32 12.8-40.533 10.667h-281.6c-14.933 0-25.6-10.667-25.6-25.6s10.667-25.6 25.6-25.6h285.867c0 0 0 0 0 0 2.133 0 4.267 0 4.267 0 0-2.133 0-4.267 0-8.533v-405.333c0-2.133 0-2.133 0-4.267 2.133-8.533 0-21.333-2.133-23.467 0 0 0 0-4.267 0h-136.533c-14.933 0-25.6-10.667-25.6-25.6s10.667-25.6 25.6-25.6h134.4c2.133 0 4.267 0 4.267 0 19.2 0 32 8.533 38.4 17.067 21.333 19.2 19.2 53.333 17.067 64zM473.6 416c46.933 32 78.933 85.333 78.933 147.2 0 96-78.933 174.933-174.933 174.933s-174.933-78.933-174.933-174.933c0-64 34.133-119.467 83.2-149.333-149.333-53.333-166.4-224-166.4-226.133-2.133-14.933 8.533-27.733 23.467-27.733 14.933-2.133 27.733 8.533 27.733 23.467 0 8.533 19.2 196.267 213.333 196.267s213.333-187.733 213.333-196.267c2.133-12.8 12.8-23.467 25.6-23.467 0 0 2.133 0 2.133 0 14.933 2.133 25.6 14.933 23.467 27.733 0 0-17.067 179.2-174.933 228.267zM375.467 439.467c-68.267 0-123.733 55.467-123.733 123.733s55.467 123.733 123.733 123.733c68.267 0 123.733-55.467 123.733-123.733s-55.467-123.733-123.733-123.733zM814.933 578.133h-200.533c-14.933 0-25.6-10.667-25.6-25.6s10.667-25.6 25.6-25.6h200.533c14.933 0 25.6 10.667 25.6 25.6s-12.8 25.6-25.6 25.6zM814.933 456.533h-166.4c-14.933 0-25.6-10.667-25.6-25.6s10.667-25.6 25.6-25.6h166.4c14.933 0 25.6 10.667 25.6 25.6 0 12.8-12.8 25.6-25.6 25.6zM814.933 281.6c14.933 0 25.6 10.667 25.6 25.6s-10.667 25.6-25.6 25.6h-123.733c-14.933 0-25.6-10.667-25.6-25.6s10.667-25.6 25.6-25.6h123.733z" />
<glyph unicode="&#xe90f;" glyph-name="icon_card" d="M829.867 695.467h-618.667c-46.933 0-85.333-38.4-85.333-85.333v-326.4c0-46.933 38.4-85.333 85.333-85.333h616.533c46.933 0 85.333 38.4 85.333 85.333v326.4c2.133 46.933-36.267 85.333-83.2 85.333zM881.067 285.867c0-27.733-23.467-51.2-51.2-51.2h-618.667c-27.733 0-51.2 23.467-51.2 51.2v162.133h718.933v-162.133zM881.067 533.333h-721.067v76.8c0 29.867 23.467 51.2 51.2 51.2h616.533c27.733 0 51.2-23.467 51.2-51.2v-76.8z" />
<glyph unicode="&#xe910;" glyph-name="icon-user-e" d="M605.867 407.467c61.867 36.267 102.4 102.4 102.4 177.067 0 113.067-91.733 206.933-206.933 206.933-113.067 0-206.933-91.733-206.933-206.933 0-78.933 44.8-147.2 108.8-181.333-187.733-59.733-206.933-270.933-206.933-273.067 0-6.4 2.133-14.933 6.4-19.2 4.267-6.4 12.8-8.533 19.2-8.533h576c6.4 0 14.933 2.133 19.2 8.533s6.4 12.8 6.4 19.2c2.133 4.267-19.2 224-217.6 277.333zM349.867 586.667c0 85.333 68.267 153.6 153.6 153.6s153.6-68.267 153.6-153.6c0-85.333-68.267-153.6-153.6-153.6s-153.6 68.267-153.6 153.6zM253.867 155.733c12.8 64 66.133 211.2 258.133 211.2s243.2-147.2 258.133-211.2h-516.267z" />
<glyph unicode="&#xe911;" glyph-name="icon_cart-b" d="M721.067 334.933c85.333 4.267 121.6 81.067 121.6 81.067l81.067 324.267-648.533 40.533c-8.533 72.533-121.6 81.067-121.6 81.067l-40.533-81.067h121.6l40.533-405.333c0-142.933 40.533-147.2 40.533-162.133s526.933 0 526.933 0v40.533h-486.4v81.067h364.8zM377.6 172.8c-34.133 0-59.733-27.733-59.733-61.867s27.733-59.733 59.733-59.733c34.133 0 61.867 27.733 61.867 59.733-2.133 36.267-27.733 61.867-61.867 61.867zM742.4 172.8c-34.133 0-61.867-27.733-61.867-61.867s27.733-59.733 61.867-59.733c34.133 0 61.867 27.733 61.867 59.733-2.133 36.267-27.733 61.867-61.867 61.867z" />
<glyph unicode="&#xe912;" glyph-name="icon-user-d" d="M512 369.067c153.6 0 279.467 125.867 279.467 279.467s-125.867 279.467-279.467 279.467-279.467-125.867-279.467-279.467c0-153.6 125.867-279.467 279.467-279.467zM512 808.533c87.467 0 160-72.533 160-160s-72.533-160-160-160-160 72.533-160 160 72.533 160 160 160zM727.467 407.467c-32 10.667-66.133-6.4-74.667-38.4-10.667-32 6.4-66.133 38.4-74.667 81.067-25.6 117.333-64 117.333-89.6 0-51.2 0-115.2-294.4-115.2s-294.4 59.733-294.4 115.2c0 23.467 32 59.733 104.533 85.333 32 10.667 46.933 44.8 36.267 76.8s-44.8 46.933-76.8 36.267c-117.333-42.667-183.467-115.2-183.467-198.4 0-170.667 113.067-234.667 413.867-234.667 298.667 0 413.867 66.133 413.867 234.667-2.133 85.333-74.667 160-200.533 202.667z" />
<glyph unicode="&#xe913;" glyph-name="icon_close-a" d="M812.8 674.133l-241.067-241.067 226.133-226.133c17.067-17.067 17.067-42.667 0-59.733s-42.667-17.067-59.733 0l-226.133 226.133-226.133-226.133c-17.067-17.067-42.667-17.067-59.733 0s-17.067 42.667 0 59.733l226.133 226.133-241.067 241.067c-17.067 17.067-17.067 42.667 0 59.733s42.667 17.067 59.733 0l241.067-241.067 241.067 241.067c17.067 17.067 42.667 17.067 59.733 0 17.067-14.933 17.067-42.667 0-59.733z" />
<glyph unicode="&#xe914;" glyph-name="icon_close-b" d="M625.067 469.333l172.8-172.8c29.867-29.867 29.867-76.8 0-104.533l-14.933-14.933c-29.867-29.867-76.8-29.867-104.533 0l-172.8 172.8-187.733-187.733c-29.867-29.867-76.8-29.867-104.533 0l-14.933 14.933c-29.867 29.867-29.867 76.8 0 104.533l185.6 187.733-187.733 187.733c-29.867 29.867-29.867 76.8 0 104.533l14.933 14.933c29.867 29.867 76.8 29.867 104.533 0l187.733-187.733 172.8 172.8c29.867 29.867 76.8 29.867 104.533 0l14.933-14.933c29.867-29.867 29.867-76.8 0-104.533l-170.667-172.8z" />
<glyph unicode="&#xe915;" glyph-name="icon-user-c" d="M507.733 928c19.2 0 36.267-2.133 55.467-6.4 17.067-4.267 34.133-8.533 51.2-17.067 14.933-6.4 29.867-14.933 42.667-23.467s21.333-17.067 29.867-27.733c17.067-21.333 27.733-42.667 36.267-68.267s12.8-49.067 17.067-70.4c4.267-25.6 4.267-51.2 4.267-76.8 4.267-2.133 8.533-6.4 10.667-12.8 2.133-4.267 4.267-10.667 6.4-17.067s2.133-14.933 0-25.6c-2.133-12.8-4.267-23.467-8.533-32s-8.533-14.933-14.933-19.2c-6.4-4.267-12.8-8.533-19.2-10.667-2.133-10.667-6.4-21.333-8.533-29.867s-6.4-17.067-10.667-23.467c-4.267-8.533-8.533-14.933-14.933-19.2-12.8-8.533-21.333-17.067-29.867-23.467s-12.8-17.067-14.933-34.133c-2.133-8.533-2.133-19.2-2.133-29.867s4.267-19.2 8.533-29.867c4.267-10.667 12.8-19.2 21.333-27.733 10.667-8.533 23.467-17.067 42.667-23.467 14.933-6.4 34.133-12.8 51.2-17.067 19.2-4.267 36.267-10.667 55.467-17.067 17.067-6.4 34.133-14.933 46.933-25.6s23.467-23.467 29.867-40.533c2.133-10.667 6.4-23.467 6.4-38.4 2.133-14.933 2.133-29.867 2.133-44.8s-2.133-29.867-4.267-42.667c-2.133-12.8-6.4-23.467-10.667-29.867-2.133-4.267-12.8-8.533-27.733-12.8s-34.133-8.533-55.467-12.8c-21.333-4.267-46.933-8.533-74.667-10.667s-55.467-6.4-81.067-8.533c-27.733-2.133-53.333-4.267-78.933-4.267-25.6-2.133-46.933-2.133-66.133-2.133s-40.533 0-64 2.133c-25.6 2.133-49.067 2.133-76.8 4.267-25.6 2.133-51.2 4.267-78.933 8.533-25.6 2.133-49.067 6.4-70.4 8.533s-38.4 6.4-53.333 8.533c-14.933 2.133-23.467 6.4-27.733 10.667-6.4 4.267-10.667 21.333-14.933 46.933s-2.133 59.733 4.267 102.4c2.133 23.467 12.8 42.667 27.733 53.333 14.933 12.8 34.133 21.333 55.467 29.867 21.333 6.4 42.667 14.933 64 19.2 21.333 6.4 42.667 14.933 59.733 25.6 12.8 8.533 23.467 17.067 29.867 23.467 6.4 8.533 12.8 14.933 14.933 23.467s4.267 14.933 4.267 23.467c0 8.533 0 17.067 0 27.733-2.133 14.933-6.4 25.6-14.933 34.133s-19.2 17.067-29.867 25.6c-4.267 4.267-8.533 10.667-12.8 19.2s-6.4 17.067-10.667 23.467c-2.133 8.533-6.4 19.2-8.533 29.867-4.267 2.133-8.533 4.267-12.8 6.4s-8.533 8.533-12.8 12.8c-4.267 6.4-8.533 14.933-10.667 25.6-4.267 10.667-4.267 21.333-4.267 29.867s2.133 17.067 4.267 23.467c2.133 6.4 6.4 12.8 12.8 19.2 0 23.467 0 49.067 4.267 72.533 2.133 21.333 6.4 42.667 14.933 66.133 6.4 23.467 17.067 44.8 29.867 64 12.8 17.067 25.6 32 40.533 42.667 17.067 10.667 32 19.2 46.933 25.6s32 10.667 46.933 12.8c17.067 2.133 32 4.267 46.933 4.267v0 0z" />
<glyph unicode="&#xe916;" glyph-name="icon-type" d="M821.333 800c23.467 0 42.667-19.2 42.667-42.667v-202.667c0-23.467-19.2-42.667-42.667-42.667h-196.267c-23.467 0-42.667 19.2-42.667 42.667v202.667c0 23.467 19.2 42.667 42.667 42.667h196.267zM398.933 800c23.467 0 42.667-19.2 42.667-42.667v-202.667c0-23.467-19.2-42.667-42.667-42.667h-196.267c-23.467 0-42.667 19.2-42.667 42.667v202.667c0 23.467 19.2 42.667 42.667 42.667h196.267zM821.333 384c23.467 0 42.667-19.2 42.667-42.667v-202.667c0-23.467-19.2-42.667-42.667-42.667h-196.267c-23.467 0-42.667 19.2-42.667 42.667v202.667c0 23.467 19.2 42.667 42.667 42.667h196.267zM426.667 384c8.533 0 12.8-6.4 12.8-14.933v-258.133c0-8.533-6.4-14.933-12.8-14.933-38.4 2.133-142.933 19.2-196.267 72.533-64 64-72.533 187.733-72.533 200.533 0 8.533 6.4 14.933 12.8 14.933h256zM821.333 842.667h-196.267c-46.933 0-85.333-38.4-85.333-85.333v-202.667c0-46.933 38.4-85.333 85.333-85.333h196.267c46.933 0 85.333 38.4 85.333 85.333v202.667c0 46.933-38.4 85.333-85.333 85.333v0zM398.933 842.667h-196.267c-46.933 0-85.333-38.4-85.333-85.333v-202.667c0-46.933 38.4-85.333 85.333-85.333h196.267c46.933 0 85.333 38.4 85.333 85.333v202.667c0 46.933-38.4 85.333-85.333 85.333v0zM821.333 426.667h-196.267c-46.933 0-85.333-38.4-85.333-85.333v-202.667c0-46.933 38.4-85.333 85.333-85.333h196.267c46.933 0 85.333 38.4 85.333 85.333v202.667c0 46.933-38.4 85.333-85.333 85.333v0zM426.667 426.667h-253.867c-32 0-55.467-25.6-55.467-57.6 0 0 6.4-149.333 85.333-230.4 76.8-76.8 226.133-85.333 226.133-85.333 32 0 55.467 25.6 55.467 57.6v258.133c0 32-25.6 57.6-57.6 57.6v0z" />
<glyph unicode="&#xe917;" glyph-name="icon-truck" d="M977.067 501.333c-6.4 10.667-12.8 21.333-19.2 32-10.667 14.933-21.333 32-34.133 46.933 0 0 0 2.133-2.133 2.133v0l-10.667 12.8c-14.933 19.2-29.867 34.133-44.8 46.933-29.867 29.867-44.8 34.133-55.467 34.133h-162.133c-4.267 0-8.533 0-12.8-2.133v74.667c0 36.267-27.733 64-64 64h-482.133c-34.133 0-64-27.733-64-64v-503.467c0-36.267 27.733-64 64-64h72.533c10.667-55.467 61.867-96 117.333-96 57.6 0 106.667 40.533 117.333 96h168.533c14.933 0 27.733 4.267 38.4 12.8 10.667-8.533 23.467-12.8 38.4-12.8h19.2c10.667-55.467 61.867-96 117.333-96 57.6 0 106.667 40.533 117.333 96h34.133c34.133 0 64 27.733 64 64v202.667c2.133 8.533 0 23.467-17.067 53.333zM281.6 134.4c-38.4 0-70.4 32-70.4 72.533 0 38.4 32 70.4 70.4 70.4s70.4-32 70.4-70.4c0-40.533-32-72.533-70.4-72.533zM582.4 612.267v-366.933c0-6.4-6.4-12.8-12.8-12.8h-168.533c-10.667 55.467-57.6 96-115.2 96v0 0 0 0 0 0 0 0c0 0 0 0 0 0v0 0 0 0 0 0 0 0 0 0 0 0 0 0 0 0 0 0 0 0 0 0 0 0c0 0 0 0 0 0v0c0 0 0 0 0 0v0 0 0 0 0 0 0 0 0 0c0 0 0 0 0 0v0c0 0 0 0 0 0v0c0 0 0 0 0 0v0 0c-55.467-2.133-102.4-42.667-115.2-96h-81.067c-6.4 0-12.8 6.4-12.8 12.8v503.467c0 6.4 6.4 12.8 12.8 12.8h480c6.4 0 12.8-6.4 12.8-12.8v-136.533zM780.8 134.4c-38.4 0-70.4 32-70.4 72.533 0 38.4 32 70.4 70.4 70.4s70.4-32 70.4-70.4c0-40.533-32-72.533-70.4-72.533zM947.2 245.333v0c0-6.4-6.4-12.8-12.8-12.8h-34.133c-10.667 53.333-55.467 91.733-108.8 96v0c0 0 0 0 0 0s0 0 0 0 0 0 0 0 0 0 0 0 0 0 0 0 0 0 0 0v0 0 0 0 0 0 0 0c0 0 0 0 0 0v0 0 0 0 0 0 0 0 0 0 0 0 0 0 0 0 0c0 0 0 0 0 0v0c0 0 0 0 0 0v0 0 0 0 0 0 0 0 0 0 0 0 0 0c0 0 0 0 0 0v0 0 0 0 0 0 0 0 0 0 0 0 0 0 0 0 0 0 0 0 0 0 0 0 0 0 0 0 0 0 0 0 0 0c0 0 0 0 0 0v0 0 0 0 0 0 0 0 0 0 0 0 0 0 0 0 0 0 0 0 0 0 0h-2.133c0 0 0 0 0 0v0 0c0 0 0 0 0 0v0 0 0 0 0c0 0 0 0 0 0v0 0c0 0 0 0-2.133 0-53.333-4.267-98.133-44.8-108.8-96h-14.933c-6.4 0-12.8 6.4-12.8 12.8v366.933c0 6.4 6.4 12.8 12.8 12.8h160c2.133-2.133 10.667-6.4 27.733-23.467 2.133-2.133 2.133-2.133 4.267-4.267h-76.8c-34.133 0-64-27.733-64-64v-76.8c0-36.267 27.733-64 64-64h185.6v-147.2zM765.867 420.267c-21.333 0-34.133 19.2-34.133 27.733v91.733c0 27.733 32 29.867 40.533 29.867h93.867c6.4-8.533 25.6-32 32-40.533 0 0 0 0 0 0 10.667-14.933 19.2-27.733 27.733-40.533l4.267 2.133h-4.267l4.267-6.4c14.933-25.6 17.067-34.133 17.067-36.267v-4.267l2.133-23.467h-183.467z" />
<glyph unicode="&#xe918;" glyph-name="icon-tonometer" d="M454.4 829.867c-32 0-57.6-25.6-57.6-57.6v-484.267c0-32 25.6-57.6 57.6-57.6h183.467c0 0 6.4-93.867-251.733-93.867-17.067 0-34.133 0-51.2 0-142.933 0-149.333 142.933-149.333 157.867v110.933c46.933 19.2 81.067 76.8 81.067 145.067 0 83.2-53.333 151.467-117.333 151.467s-117.333-68.267-117.333-151.467c0-66.133 34.133-123.733 81.067-145.067v-110.933c0-78.933 46.933-228.267 219.733-228.267 17.067 0 34.133 0 51.2 0s36.267 0 53.333 0c93.867 0 326.4 55.467 326.4 164.267h170.667c32 0 57.6 25.6 57.6 57.6v484.267c0 32-25.6 57.6-57.6 57.6h-480zM704 320c-115.2 0-209.067 93.867-209.067 209.067s93.867 209.067 209.067 209.067c115.2 0 209.067-93.867 209.067-209.067 2.133-113.067-91.733-209.067-209.067-209.067v0zM706.133 689.067c-87.467 0-157.867-70.4-157.867-157.867s70.4-157.867 157.867-157.867c87.467 0 157.867 70.4 157.867 157.867 0 85.333-72.533 157.867-157.867 157.867v0zM706.133 409.6c-66.133 0-121.6 53.333-121.6 121.6s53.333 121.6 121.6 121.6c66.133 0 121.6-53.333 121.6-121.6-2.133-68.267-55.467-121.6-121.6-121.6v0zM763.733 599.467c0-6.4 4.267-10.667 10.667-10.667s10.667 4.267 10.667 10.667c0 6.4-4.267 10.667-10.667 10.667-4.267 0-10.667-4.267-10.667-10.667zM629.333 469.333c-4.267-4.267-4.267-10.667 0-14.933s10.667-4.267 14.933 0c4.267 4.267 4.267 10.667 0 14.933-6.4 2.133-10.667 2.133-14.933 0v0zM793.6 531.2c0-6.4 4.267-10.667 10.667-10.667s10.667 4.267 10.667 10.667c0 6.4-4.267 10.667-10.667 10.667-6.4-2.133-10.667-6.4-10.667-10.667zM597.333 531.2c0-6.4 4.267-10.667 10.667-10.667s10.667 4.267 10.667 10.667c0 6.4-4.267 10.667-10.667 10.667-6.4-2.133-10.667-6.4-10.667-10.667zM768 469.333c-4.267-4.267-4.267-10.667 0-14.933s10.667-4.267 14.933 0c4.267 4.267 4.267 10.667 0 14.933-4.267 2.133-10.667 2.133-14.933 0v0zM625.067 599.467c0-6.4 4.267-10.667 10.667-10.667s10.667 4.267 10.667 10.667c0 6.4-4.267 10.667-10.667 10.667s-10.667-4.267-10.667-10.667zM718.933 554.667v36.267c0 6.4-6.4 12.8-12.8 12.8s-12.8-6.4-12.8-12.8v-36.267c-10.667-4.267-14.933-12.8-14.933-23.467 0-14.933 12.8-27.733 27.733-27.733s27.733 12.8 27.733 27.733c0 8.533-8.533 19.2-14.933 23.467v0zM695.467 629.333c0-6.4 4.267-10.667 10.667-10.667s10.667 4.267 10.667 10.667c0 6.4-4.267 10.667-10.667 10.667-6.4-2.133-10.667-6.4-10.667-10.667zM695.467 433.067c0-6.4 4.267-10.667 10.667-10.667s10.667 4.267 10.667 10.667c0 6.4-4.267 10.667-10.667 10.667-6.4-2.133-10.667-6.4-10.667-10.667z" />
<glyph unicode="&#xe919;" glyph-name="icon_coin-e" d="M748.8 281.6c-23.467-42.667-108.8-72.533-213.333-72.533s-189.867 32-213.333 72.533c-29.867-14.933-46.933-34.133-46.933-53.333 0-53.333 115.2-96 260.267-96 142.933 0 260.267 42.667 260.267 96 0 19.2-17.067 38.4-46.933 53.333zM537.6 731.733c142.933 0 260.267-42.667 260.267-96s-115.2-96-260.267-96c-142.933 0-260.267 42.667-260.267 96s115.2 96 260.267 96zM748.8 411.733c-23.467-42.667-108.8-72.533-213.333-72.533s-189.867 32-213.333 72.533c-29.867-14.933-46.933-34.133-46.933-53.333 0-53.333 115.2-96 260.267-96 142.933 0 260.267 42.667 260.267 96 0 19.2-17.067 38.4-46.933 53.333zM748.8 544c-23.467-42.667-108.8-72.533-213.333-72.533s-189.867 32-213.333 72.533c-27.733-14.933-44.8-34.133-44.8-53.333 0-53.333 115.2-96 260.267-96 142.933 0 260.267 42.667 260.267 96-2.133 19.2-19.2 38.4-49.067 53.333z" />
<glyph unicode="&#xe91a;" glyph-name="icon_coin-f" d="M614.4 420.267c-12.8 17.067-38.4 34.133-74.667 49.067-29.867 12.8-51.2 23.467-57.6 32-8.533 8.533-12.8 17.067-12.8 25.6 0 12.8 6.4 21.333 17.067 27.733s27.733 10.667 46.933 10.667c32 0 61.867-8.533 85.333-25.6v72.533c-21.333 8.533-46.933 12.8-78.933 12.8v72.533h-49.067v-74.667c-25.6-4.267-49.067-12.8-66.133-25.6-25.6-19.2-38.4-44.8-38.4-78.933 0-46.933 27.733-81.067 85.333-104.533 36.267-14.933 57.6-27.733 66.133-36.267s12.8-17.067 12.8-27.733c0-10.667-4.267-21.333-17.067-27.733-10.667-6.4-25.6-10.667-46.933-10.667-38.4 0-70.4 12.8-100.267 36.267v-78.933c27.733-12.8 61.867-19.2 102.4-19.2 0 0 0 0 0 0v-57.6h49.067v64c23.467 4.267 42.667 10.667 57.6 23.467 25.6 19.2 36.267 44.8 36.267 81.067 4.267 21.333-2.133 42.667-17.067 59.733zM512-2.133c-247.467 0-448 200.533-448 448s200.533 448 448 448c247.467 0 448-200.533 448-448s-200.533-448-448-448zM512 859.733c-228.267 0-413.867-185.6-413.867-413.867s185.6-413.867 413.867-413.867 413.867 185.6 413.867 413.867c0 228.267-185.6 413.867-413.867 413.867z" />
<glyph unicode="&#xe91b;" glyph-name="icon-ticket-b" d="M721.067 556.8c0 0-2.133 0 0 0-25.6-23.467-61.867-23.467-85.333-2.133-10.667 10.667-17.067 25.6-17.067 42.667 0 14.933 6.4 29.867 17.067 42.667 0 0 0 0 2.133 2.133l-66.133 64c-6.4 6.4-19.2 6.4-25.6 0l-298.667-290.133c-4.267-2.133-4.267-6.4-4.267-12.8 0-4.267 2.133-8.533 4.267-12.8l68.267-66.133c23.467 14.933 53.333 10.667 74.667-8.533 10.667-10.667 17.067-25.6 17.067-42.667 0-10.667-2.133-21.333-8.533-32l55.467-55.467c6.4-6.4 19.2-6.4 25.6 0l296.533 288c4.267 2.133 4.267 6.4 4.267 12.8 0 4.267-2.133 8.533-4.267 12.8l-55.467 57.6zM401.067 379.733c-4.267-4.267-10.667-4.267-12.8 0l-12.8 12.8c-4.267 4.267-4.267 10.667 0 12.8l168.533 168.533c4.267 4.267 10.667 4.267 12.8 0l12.8-12.8c4.267-4.267 4.267-10.667 0-12.8l-168.533-168.533zM650.667 469.333l-168.533-170.667c-4.267-4.267-10.667-4.267-12.8 0l-12.8 12.8c-4.267 4.267-4.267 10.667 0 12.8l168.533 168.533c4.267 4.267 10.667 4.267 12.8 0l12.8-12.8c4.267-2.133 4.267-8.533 0-10.667zM512 928c-264.533 0-480-215.467-480-480s215.467-480 480-480c264.533 0 480 215.467 480 480s-215.467 480-480 480zM795.733 460.8l-298.667-288c-8.533-8.533-19.2-12.8-32-12.8-10.667 0-23.467 4.267-32 12.8l-76.8 74.667 12.8 8.533c4.267 4.267 8.533 12.8 8.533 21.333s-4.267 17.067-10.667 23.467c-12.8 12.8-34.133 12.8-46.933 0l-8.533-8.533-85.333 83.2c-8.533 8.533-12.8 19.2-12.8 29.867s4.267 23.467 12.8 32l296.533 288c17.067 17.067 44.8 17.067 61.867 0l91.733-89.6-17.067-8.533c-4.267-2.133-6.4-4.267-8.533-6.4-6.4-6.4-10.667-14.933-10.667-23.467s4.267-17.067 10.667-23.467c12.8-12.8 34.133-12.8 46.933 0 2.133 2.133 4.267 4.267 6.4 8.533l8.533 17.067 78.933-78.933c8.533-8.533 12.8-19.2 12.8-32s0-19.2-8.533-27.733z" />
<glyph unicode="&#xe91c;" glyph-name="icon-ticket-a" d="M72.533 729.6c0 34.133 27.733 61.867 61.867 61.867h753.067c34.133 0 61.867-27.733 61.867-61.867v-40.533h40.533v40.533c0 55.467-44.8 102.4-102.4 102.4h-753.067c-55.467 0-102.4-44.8-102.4-102.4v-40.533h40.533v40.533zM36.267 593.067v-121.6c0-10.667 8.533-21.333 21.333-21.333 44.8 0 81.067-36.267 81.067-81.067s-36.267-81.067-81.067-81.067c-10.667 0-21.333-8.533-21.333-21.333v-102.4c0-55.467 44.8-102.4 102.4-102.4h138.667v40.533h-140.8c-34.133 0-61.867 27.733-61.867 61.867v83.2c57.6 10.667 102.4 59.733 102.4 119.467s-42.667 113.067-100.267 123.733v102.4c0 34.133 27.733 61.867 61.867 61.867h138.667v40.533h-140.8c-55.467 0-100.267-44.8-100.267-102.4zM889.6 695.467h-571.733v-40.533h573.867c34.133 0 61.867-27.733 61.867-61.867v-426.667c0-34.133-27.733-61.867-61.867-61.867h-573.867v-40.533h573.867c55.467 0 102.4 44.8 102.4 102.4v426.667c-2.133 57.6-46.933 102.4-104.533 102.4zM595.2 264.533c-2.133-2.133-4.267-6.4-8.533-6.4-4.267-2.133-10.667-2.133-17.067-2.133s-17.067 0-27.733 2.133c4.267-4.267 6.4-8.533 8.533-14.933 2.133-4.267 2.133-8.533 2.133-14.933 12.8 0 23.467 2.133 32 4.267s14.933 4.267 21.333 8.533c4.267 4.267 8.533 8.533 10.667 12.8s4.267 12.8 4.267 19.2l4.267 38.4c0 6.4 2.133 12.8 2.133 17.067s0 8.533 2.133 12.8c0 4.267 0 6.4 2.133 8.533 0 2.133 0 4.267 2.133 6.4-4.267 0-10.667 0-14.933-2.133-4.267 0-10.667 0-19.2 0-6.4 0-14.933 0-25.6 0s-21.333 0-36.267 0c-17.067 0-29.867 0-40.533 0s-19.2 0-25.6 0c-6.4 0-12.8 0-17.067 0s-8.533 0-14.933 2.133v-23.467c14.933 2.133 34.133 2.133 57.6 2.133 0-10.667-2.133-21.333-6.4-32-4.267-8.533-8.533-17.067-17.067-25.6-8.533-6.4-17.067-14.933-32-21.333-12.8-6.4-29.867-12.8-49.067-17.067 4.267-2.133 8.533-6.4 12.8-8.533 4.267-4.267 6.4-8.533 8.533-10.667 19.2 6.4 34.133 14.933 49.067 21.333 12.8 8.533 23.467 14.933 29.867 25.6 8.533 8.533 12.8 19.2 17.067 29.867s6.4 23.467 6.4 38.4h87.467l-4.267-57.6c-2.133-6.4-2.133-10.667-4.267-12.8zM622.933 520.533c4.267 4.267 6.4 6.4 8.533 6.4 2.133 2.133 4.267 2.133 4.267 2.133 4.267 2.133 8.533 2.133 8.533 4.267s-2.133 4.267-4.267 4.267-6.4 4.267-10.667 6.4c-2.133 2.133-6.4 4.267-8.533 8.533-4.267-8.533-12.8-17.067-21.333-25.6s-19.2-19.2-32-27.733l17.067-12.8c8.533 8.533 17.067 14.933 23.467 21.333s10.667 10.667 14.933 12.8zM413.867 366.933c-17.067-10.667-36.267-21.333-57.6-32 6.4-2.133 10.667-4.267 12.8-6.4s6.4-6.4 8.533-10.667c23.467 12.8 42.667 25.6 59.733 40.533s32 29.867 44.8 46.933h100.267c6.4-8.533 12.8-17.067 21.333-23.467 6.4-6.4 14.933-14.933 23.467-21.333s19.2-12.8 27.733-19.2c10.667-6.4 21.333-12.8 34.133-19.2 4.267 8.533 8.533 17.067 17.067 23.467-12.8 4.267-23.467 6.4-32 10.667-10.667 4.267-19.2 8.533-27.733 12.8s-14.933 10.667-21.333 14.933c-6.4 6.4-12.8 10.667-19.2 17.067 10.667 0 21.333 0 32 0s19.2 0 29.867 0c8.533 0 17.067 0 23.467 0s10.667 0 14.933 0v23.467c-4.267 0-10.667 0-21.333-2.133-10.667 0-23.467 0-40.533 0s-38.4 0-61.867 0c-23.467 0-51.2 0-83.2 0 8.533 12.8 14.933 27.733 21.333 42.667 25.6 0 46.933 0 64 0s32 0 44.8 0c12.8 0 21.333 0 27.733 0s12.8 0 17.067 0v23.467c-4.267 0-10.667 0-17.067-2.133-6.4 0-17.067 0-27.733 0s-25.6 0-42.667 0c-17.067 0-36.267 0-61.867 0 4.267 14.933 8.533 25.6 12.8 34.133s6.4 14.933 8.533 21.333c2.133 4.267 4.267 8.533 4.267 10.667 2.133 2.133 2.133 2.133 4.267 4.267 4.267 2.133 4.267 4.267 4.267 4.267 0 2.133-2.133 2.133-6.4 2.133-8.533 0-17.067 2.133-27.733 6.4-2.133-12.8-4.267-25.6-8.533-42.667-4.267-14.933-8.533-29.867-12.8-42.667-25.6 0-46.933 0-66.133 0-17.067 0-29.867 2.133-40.533 2.133v-23.467c8.533 0 21.333 2.133 38.4 2.133s36.267 0 59.733 0c-8.533-17.067-14.933-32-23.467-42.667-10.667 0-21.333 0-32 0s-19.2 0-27.733 0c-8.533 0-17.067 0-23.467 0s-12.8 0-17.067 2.133v-23.467c2.133 0 6.4 0 12.8 0s12.8 0 21.333 0c8.533 0 17.067 0 25.6 0s17.067 0 27.733 0c-14.933-12.8-27.733-23.467-44.8-34.133zM467.2 490.667l17.067 17.067c-2.133 2.133-6.4 6.4-10.667 8.533-4.267 4.267-8.533 8.533-14.933 12.8-4.267 4.267-10.667 8.533-17.067 12.8s-10.667 8.533-14.933 10.667l-12.8-19.2c8.533-4.267 19.2-10.667 29.867-19.2 8.533-8.533 17.067-17.067 23.467-23.467z" />
<glyph unicode="&#xe91d;" glyph-name="icon_down-b" d="M806.4 650.667l38.4-38.4-330.667-332.8-38.4 38.4-292.267 294.4 38.4 38.4 292.267-292.267 292.267 292.267z" />
<glyph unicode="&#xe91e;" glyph-name="icon_edit-a" d="M953.6 386.133l-64 64c-8.533 8.533-19.2 12.8-29.867 12.8-8.533 0-19.2-4.267-25.6-10.667l-51.2-51.2-202.667-204.8c-2.133-4.267-4.267-8.533-4.267-10.667l-34.133-121.6c0-2.133-2.133-4.267-2.133-8.533 0-10.667 10.667-21.333 23.467-21.333 2.133 0 4.267 0 6.4 0l119.467 34.133c4.267 2.133 6.4 2.133 10.667 4.267l204.8 206.933 49.067 51.2c6.4 6.4 10.667 14.933 10.667 25.6 0 12.8-2.133 23.467-10.667 29.867zM672 113.067l-74.667-21.333 21.333 76.8 183.467 185.6 53.333-53.333-183.467-187.733zM887.467 330.667l-53.333 53.333 29.867 29.867 53.333-53.333-29.867-29.867zM642.133 486.4h-356.267c-12.8 0-23.467-10.667-23.467-23.467s10.667-23.467 23.467-23.467h356.267c12.8 0 23.467 10.667 23.467 23.467-2.133 14.933-10.667 23.467-23.467 23.467zM663.467 360.533c0 12.8-10.667 23.467-23.467 23.467h-354.133c-12.8 0-23.467-10.667-23.467-23.467s10.667-23.467 23.467-23.467h356.267c12.8 0 21.333 10.667 21.333 23.467zM450.133 281.6h-164.267c-12.8 0-23.467-10.667-23.467-23.467s10.667-23.467 23.467-23.467h164.267c12.8 0 23.467 10.667 23.467 23.467s-10.667 23.467-23.467 23.467zM450.133 177.067h-164.267c-12.8 0-23.467-10.667-23.467-23.467s10.667-23.467 23.467-23.467h164.267c12.8 0 23.467 10.667 23.467 23.467s-10.667 23.467-23.467 23.467zM228.267 85.333v753.067c0 2.133 2.133 4.267 4.267 4.267h170.667v-247.467c0-27.733 21.333-51.2 49.067-51.2h245.333v-140.8h46.933v187.733l-296.533 296.533h-215.467c-14.933 0-25.6-4.267-36.267-14.933-8.533-8.533-12.8-19.2-12.8-34.133v-753.067c0-27.733 21.333-51.2 49.067-51.2h270.933v46.933h-270.933c-2.133 0-4.267 2.133-4.267 4.267zM448 823.467l230.4-232.533h-226.133c-2.133 0-4.267 2.133-4.267 4.267v228.267z" />
<glyph unicode="&#xe91f;" glyph-name="icon_edit-b" d="M861.867 170.667c0-36.267-29.867-64-64-64h-580.267c-36.267 0-64 29.867-64 64v544c0 36.267 29.867 64 64 64h388.267l2.133 2.133c6.4 14.933 6.4 32 0 44.8v0h-390.4c-61.867 0-113.067-51.2-113.067-113.067v-541.867c0-61.867 51.2-113.067 113.067-113.067h580.267c61.867 0 113.067 51.2 113.067 113.067v345.6l-12.8 6.4c-8.533 4.267-19.2 4.267-27.733 0l-8.533-4.267v-347.733zM330.667 258.133l196.267 59.733 369.067 369.067c32 32 32 83.2 0 113.067l-21.333 21.333c-32 32-83.2 32-113.067 0l-369.067-366.933-61.867-196.267zM795.733 789.333c12.8 12.8 34.133 12.8 44.8 0l21.333-21.333c12.8-12.8 12.8-34.133 0-44.8l-29.867-34.133-68.267 68.267 32 32zM729.6 723.2l68.267-68.267-294.4-292.267-68.267 68.267 294.4 292.267zM422.4 386.133l38.4-38.4-55.467-17.067 17.067 55.467z" />
<glyph unicode="&#xe920;" glyph-name="icon-bottle-b" d="M654.933 650.667h-21.333v40.533h81.067c4.267 0 0 27.733 0 61.867v21.333c0 34.133-27.733 61.867-61.867 61.867h-283.733c-34.133 0-61.867-27.733-61.867-61.867v-21.333c0-34.133 0-61.867 0-61.867h81.067v-40.533h-21.333c-89.6 0-102.4-106.667-102.4-142.933 0-17.067 0-366.933 0-366.933 0-44.8 36.267-81.067 81.067-81.067h326.4c44.8 0 81.067 36.267 81.067 81.067v369.067c4.267 87.467-46.933 140.8-98.133 140.8zM358.4 774.4c0 6.4 4.267 10.667 10.667 10.667h283.733c6.4 0 10.667-4.267 10.667-10.667v-21.333c0-2.133 0-6.4 0-8.533h-305.067v29.867zM706.133 142.933c0-17.067-12.8-29.867-29.867-29.867h-326.4c-17.067 0-29.867 12.8-29.867 29.867v366.933c0 14.933 2.133 91.733 51.2 91.733h72.533v93.867h142.933v-93.867h72.533c8.533 0 17.067-4.267 25.6-12.8 17.067-17.067 25.6-44.8 25.6-78.933v-366.933z" />
<glyph unicode="&#xe921;" glyph-name="icon_female" d="M817.067 535.467c0 153.6-123.733 279.467-279.467 279.467-153.6 0-279.467-123.733-279.467-279.467 0-145.067 110.933-264.533 251.733-277.333v-40.533h-138.667c-4.267 0-6.4-2.133-6.4-6.4v-40.533c0-4.267 2.133-6.4 6.4-6.4h140.8v-100.267c0-4.267 2.133-6.4 6.4-6.4h40.533c4.267 0 6.4 2.133 6.4 6.4v100.267h138.667c4.267 0 6.4 2.133 6.4 6.4v40.533c0 4.267-2.133 6.4-6.4 6.4h-138.667v40.533c140.8 14.933 251.733 132.267 251.733 277.333zM537.6 305.067c-128 0-230.4 104.533-230.4 230.4s102.4 232.533 230.4 232.533 230.4-104.533 230.4-230.4-102.4-232.533-230.4-232.533z" />
<glyph unicode="&#xe922;" glyph-name="icon_fold" d="M249.6 93.867l53.333-51.2 209.067 206.933 204.8-206.933 57.6 57.6-206.933 204.8-53.333 53.333-55.467-55.467zM249.6 567.467l53.333-53.333 209.067 209.067 204.8-206.933 57.6 55.467-260.267 260.267-55.467-55.467v-2.133z" />
<glyph unicode="&#xe923;" glyph-name="icon-talk-d" d="M610.133 185.6h-198.4c0 0-10.667-2.133-14.933-4.267l-174.933-93.867v72.533c0 17.067-19.2 25.6-36.267 25.6h-32c-36.267 0-64 34.133-64 70.4v320c0 36.267 34.133 72.533 70.4 72.533h78.933v42.667h-72.533c-68.267 0-123.733-55.467-123.733-123.733v-307.2c0-68.267 55.467-123.733 123.733-123.733v-91.733c0-4.267 2.133-10.667 4.267-14.933 0 0 0 0 0-2.133s2.133-2.133 2.133-2.133c2.133-2.133 2.133-4.267 4.267-4.267 2.133 2.133 4.267 0 6.4 0s4.267-2.133 4.267-2.133c2.133 0 4.267 0 6.4-2.133 2.133 0 2.133 0 4.267 0 0 0 2.133 0 2.133 0 2.133 0 4.267 0 6.4 2.133 2.133 0 4.267 2.133 6.4 2.133 0 0 2.133 0 2.133 0l209.067 119.467h181.333c59.733 0 110.933 42.667 121.6 100.267h-49.067c-12.8-29.867-38.4-55.467-68.267-55.467zM857.6 881.067h-437.333c-68.267 0-123.733-55.467-123.733-123.733v-307.2c0-68.267 55.467-123.733 123.733-123.733h181.333l209.067-119.467c0 0 2.133 0 2.133 0 2.133 0 4.267-2.133 6.4-2.133s4.267-2.133 6.4-2.133c0 0 2.133 0 2.133 0 2.133 0 2.133 0 4.267 0s4.267 0 6.4 2.133c2.133 0 4.267 2.133 6.4 2.133s4.267 2.133 4.267 4.267c2.133 2.133 2.133 2.133 4.267 4.267 0 0 2.133 2.133 2.133 2.133s0 0 0 0c2.133 4.267 4.267 8.533 4.267 14.933v91.733c68.267 0 123.733 55.467 123.733 123.733v309.333c-2.133 68.267-57.6 123.733-125.867 123.733zM870.4 375.467h-32c-17.067 0-36.267-6.4-36.267-25.6v-72.533l-174.933 93.867c-4.267 2.133-14.933 4.267-14.933 4.267h-198.4c-36.267 0-70.4 38.4-70.4 72.533v320c0 36.267 34.133 70.4 68.267 70.4h452.267c36.267 0 70.4-38.4 70.4-72.533v-320c0-36.267-29.867-70.4-64-70.4zM612.267 482.133v-42.667c44.8-4.267 51.2 4.267 38.4 42.667h-38.4zM618.667 793.6c-61.867-8.533-102.4-57.6-91.733-115.2h34.133c0 6.4 2.133 12.8 2.133 19.2 8.533 51.2 44.8 74.667 96 59.733 44.8-12.8 59.733-61.867 27.733-96-14.933-17.067-32-32-46.933-49.067-21.333-25.6-27.733-55.467-25.6-89.6h36.267c-6.4 44.8 21.333 72.533 51.2 98.133 8.533 8.533 17.067 17.067 21.333 25.6 6.4 12.8 12.8 25.6 14.933 38.4 10.667 70.4-46.933 121.6-119.467 108.8z" />
<glyph unicode="&#xe924;" glyph-name="icon-talk-c" d="M891.733 648.533v-87.467c151.467-234.667-87.467-401.067-87.467-401.067v-104.533l-104.533 70.4c-160-25.6-262.4 34.133-262.4 34.133h-104.533c164.267-104.533 349.867-87.467 349.867-87.467l157.867-104.533c0 0 17.067 174.933 17.067 174.933 273.067 226.133 29.867 507.733 34.133 505.6zM358.4 236.8c25.6-4.267 53.333-6.4 78.933-6.4 221.867 0 401.067 155.733 401.067 349.867s-179.2 347.733-398.933 347.733c-221.867 0-403.2-155.733-403.2-349.867 0-113.067 61.867-213.333 157.867-277.333v-142.933l164.267 78.933zM629.333 631.467c29.867 0 53.333-23.467 53.333-53.333s-23.467-53.333-53.333-53.333c-29.867 0-53.333 23.467-53.333 53.333s23.467 53.333 53.333 53.333zM443.733 631.467c29.867 0 53.333-23.467 53.333-53.333s-23.467-53.333-53.333-53.333c-29.867 0-53.333 23.467-53.333 53.333s23.467 53.333 53.333 53.333zM264.533 631.467c29.867 0 53.333-23.467 53.333-53.333s-23.467-53.333-53.333-53.333-53.333 23.467-53.333 53.333c0 29.867 25.6 53.333 53.333 53.333z" />
<glyph unicode="&#xe925;" glyph-name="icon-talk-b" d="M791.467 520.533c0 157.867-149.333 288-330.667 288s-330.667-128-330.667-288c0-70.4 29.867-138.667 83.2-192l-25.6-149.333 187.733 61.867c27.733-6.4 55.467-10.667 85.333-10.667 183.467 2.133 330.667 132.267 330.667 290.133zM375.467 288l-132.267-44.8 17.067 102.4-8.533 8.533c-51.2 44.8-78.933 104.533-78.933 168.533 0 134.4 130.133 245.333 288 245.333s288-110.933 288-245.333c0-134.4-130.133-245.333-288-245.333-27.733 0-53.333 4.267-81.067 10.667h-4.267zM853.333 531.2c-6.4 10.667-19.2 14.933-29.867 8.533-8.533-6.4-12.8-19.2-6.4-27.733 4.267-6.4 96-177.067-36.267-270.933l-8.533-6.4-17.067-89.6-89.6 36.267-6.4-2.133c0 0-102.4-27.733-241.067 40.533-10.667 4.267-23.467 0-27.733-8.533-4.267-10.667 0-23.467 8.533-27.733 134.4-66.133 236.8-51.2 264.533-46.933l123.733-49.067 25.6 123.733c119.467 93.867 78.933 249.6 40.533 320zM360.533 520.533c0-17.673-14.327-32-32-32s-32 14.327-32 32c0 17.673 14.327 32 32 32s32-14.327 32-32zM659.2 520.533c0-17.673-14.327-32-32-32s-32 14.327-32 32c0 17.673 14.327 32 32 32s32-14.327 32-32zM509.867 520.533c0-17.673-14.327-32-32-32s-32 14.327-32 32c0 17.673 14.327 32 32 32s32-14.327 32-32z" />
<glyph unicode="&#xe926;" glyph-name="icon_gift-c" d="M970.667 682.667h-238.933v157.867l-21.333-2.133c-4.267 0-115.2-17.067-185.6-140.8-70.4 125.867-179.2 140.8-185.6 140.8l-21.333 2.133v-157.867h-264.533v-183.467h72.533v-386.133c0-51.2 40.533-91.733 91.733-91.733h586.667c51.2 0 91.733 40.533 91.733 91.733v386.133h72.533v183.467zM567.467 535.467h-96v110.933h96v-110.933zM471.467 76.8v420.267h96v-422.4h-96zM693.333 797.867v-100.267h-125.867c42.667 66.133 98.133 89.6 125.867 100.267zM356.267 797.867c29.867-8.533 83.2-34.133 125.867-100.267h-125.867v100.267zM89.6 646.4h345.6v-110.933h-345.6v110.933zM164.267 113.067v384h270.933v-439.467h-217.6c-29.867 0-53.333 23.467-53.333 55.467zM859.733 113.067c0-29.867-25.6-55.467-55.467-55.467h-202.667v439.467h256v-384zM934.4 535.467h-330.667v110.933h330.667v-110.933z" />
<glyph unicode="&#xe927;" glyph-name="icon_gnqbj" d="M354.133 467.2h-89.6v-61.867h-59.733v-89.6h59.733v-59.733h89.6v59.733h59.733v89.6h-59.733v61.867zM849.067 251.733l-183.467 40.533c-6.4 2.133-14.933 2.133-21.333 2.133l-25.6 74.667c-12.8 36.267-51.2 55.467-85.333 42.667-4.267-2.133-6.4-2.133-10.667-4.267v125.867c0 55.467-40.533 100.267-93.867 106.667v64h25.6v96h-288v-96h25.6v-64c-53.333-6.4-93.867-53.333-93.867-106.667v-341.333c0-59.733 49.067-108.8 108.8-108.8h209.067c59.733 0 108.8 49.067 108.8 108.8v32l25.6-76.8c12.8-36.267 51.2-55.467 85.333-42.667 21.333 6.4 38.4 23.467 44.8 44.8l140.8-29.867c36.267-8.533 72.533 14.933 81.067 51.2 6.4 36.267-17.067 72.533-53.333 81.067zM480 192c0-36.267-29.867-66.133-66.133-66.133h-209.067c-34.133 2.133-64 29.867-64 66.133v341.333c0 36.267 29.867 66.133 66.133 66.133h6.4c12.8 0 21.333 10.667 21.333 21.333v61.867h151.467v-61.867c0-12.8 10.667-21.333 21.333-21.333h6.4c36.267 0 66.133-29.867 66.133-66.133v-341.333zM629.333 123.733c-25.6-8.533-51.2 4.267-59.733 29.867l-29.867 89.6 89.6 29.867 29.867-89.6c8.533-25.6-6.4-51.2-29.867-59.733zM731.733 157.867l-49.067 10.667c0 6.4-2.133 14.933-4.267 21.333l-27.733 81.067c4.267 0 6.4 0 10.667 0l91.733-19.2-21.333-93.867z" />
<glyph unicode="&#xe928;" glyph-name="icon_gzss" d="M522.667 842.667c-40.533 0-78.933-6.4-115.2-17.067 19.2-8.533 38.4-23.467 59.733-46.933 147.2-164.267 219.733-266.667 147.2-384-42.667-68.267-189.867-85.333-202.667 0-12.8 83.2 72.533 72.533 36.267 147.2-36.267 72.533-147.2 164.267-147.2 164.267-4.267 25.6-2.133 51.2 4.267 74.667-106.667-72.533-177.067-194.133-177.067-332.8 0-164.267 102.4-307.2 245.333-364.8 12.8 42.667 6.4 89.6-17.067 125.867-36.267 55.467 19.2 91.733 19.2 91.733 40.533 40.533 106.667-40.533 183.467 0 51.2 25.6 91.733 23.467 128-55.467s-85.333-98.133-110.933-128c-14.933-19.2-25.6-40.533-32-64 206.933 10.667 371.2 183.467 371.2 392.533 0 219.733-174.933 396.8-392.533 396.8zM723.2 264.533c-29.867 0-55.467 61.867-55.467 136.533 0 76.8 25.6 136.533 55.467 136.533s55.467-61.867 55.467-136.533c0-74.667-23.467-136.533-55.467-136.533z" />
<glyph unicode="&#xe929;" glyph-name="icon-factory" d="M718.933 428.8h81.067v-81.067h-81.067v81.067zM576 428.8h81.067v-81.067h-81.067v81.067zM718.933 285.867h81.067v-81.067h-81.067v81.067zM576 285.867h81.067v-81.067h-81.067v81.067zM921.6 507.733l-104.533 281.6h-610.133l-104.533-281.6h23.467v-401.067h172.8v266.667h194.133v-266.667h398.933v401.067h29.867zM241.067 738.133h541.867l64-170.667h-669.867l64 170.667zM840.533 157.867h-296.533v266.667h-296.533v-266.667h-70.4v349.867h663.467v-349.867z" />
<glyph unicode="&#xe92a;" glyph-name="icon-tag-c" d="M883.2 533.333c-61.867 21.333-145.067 14.933-217.6 0 64 34.133 132.267 78.933 166.4 134.4 0 0 61.867 81.067-27.733 153.6 0 0-46.933 38.4-98.133 17.067v0c-32-10.667-40.533 19.2-40.533 19.2v0c-17.067 55.467-74.667 66.133-74.667 66.133-113.067 23.467-136.533-76.8-136.533-76.8-21.333-61.867-14.933-145.067 0-217.6-34.133 64-78.933 132.267-134.4 166.4 0 0-81.067 61.867-153.6-27.733 0 0-38.4-46.933-17.067-98.133v0c10.667-32-19.2-40.533-19.2-40.533v0c-55.467-14.933-66.133-72.533-66.133-72.533-23.467-113.067 76.8-136.533 76.8-136.533 61.867-21.333 145.067-14.933 217.6 0-64-34.133-132.267-78.933-166.4-134.4 0 0-61.867-81.067 27.733-153.6 0 0 46.933-38.4 98.133-17.067v0c32 10.667 40.533-19.2 40.533-19.2v0c17.067-55.467 74.667-66.133 74.667-66.133 113.067-23.467 136.533 76.8 136.533 76.8 10.667 34.133 14.933 72.533 12.8 113.067 21.333-93.867 81.067-219.733 234.667-249.6l49.067 36.267-21.333 78.933c0 0-164.267 29.867-221.867 149.333 23.467-32 51.2-59.733 81.067-78.933 0 0 81.067-61.867 153.6 27.733 0 0 38.4 46.933 17.067 98.133v0c-10.667 32 19.2 40.533 19.2 40.533v0c55.467 17.067 66.133 74.667 66.133 74.667 23.467 113.067-76.8 136.533-76.8 136.533v0z" />
<glyph unicode="&#xe92b;" glyph-name="icon-heart-a" d="M704 868.267c-70.4 0-140.8-27.733-192-76.8-51.2 49.067-119.467 76.8-192 76.8-155.733 0-281.6-125.867-281.6-281.6 0-34.133 6.4-51.2 14.933-78.933 2.133-6.4 8.533-17.067 17.067-34.133 4.267-6.4 6.4-12.8 8.533-14.933 21.333-34.133 38.4-55.467 51.2-68.267-8.533-19.2-6.4-42.667 10.667-57.6l53.333-55.467c10.667-8.533 21.333-14.933 34.133-14.933s25.6 4.267 36.267 14.933l34.133 36.267c19.2 19.2 19.2 51.2-2.133 70.4l-53.333 51.2c-10.667 8.533-21.333 14.933-34.133 14.933s-25.6-4.267-36.267-14.933l-8.533-8.533c-8.533 8.533-21.333 25.6-40.533 55.467-2.133 4.267-4.267 8.533-8.533 14.933s-12.8 21.333-12.8 25.6c-8.533 25.6-12.8 38.4-12.8 64 0 128 102.4 230.4 230.4 230.4 66.133 0 128-27.733 172.8-78.933l19.2-21.333 19.2 21.333c44.8 49.067 106.667 78.933 172.8 78.933 128 0 230.4-104.533 230.4-230.4 0-59.733-44.8-147.2-102.4-198.4l-149.333-145.067c-23.467 59.733-78.933 102.4-147.2 102.4-87.467 0-157.867-70.4-157.867-157.867s70.4-157.867 157.867-157.867c85.333 0 153.6 68.267 157.867 151.467l174.933 168.533c57.6 51.2 119.467 151.467 119.467 236.8-2.133 153.6-128 281.6-283.733 281.6zM211.2 398.933l53.333-51.2-32-34.133-53.333 51.2 6.4 6.4c2.133 2.133 6.4 4.267 8.533 8.533l17.067 19.2zM535.467 78.933c-59.733 0-106.667 46.933-106.667 106.667s46.933 106.667 106.667 106.667 106.667-46.933 106.667-106.667-49.067-106.667-106.667-106.667zM420.267 550.4c27.733 19.2 61.867 27.733 96 23.467 57.6-8.533 102.4-55.467 106.667-113.067 2.133-14.933 12.8-23.467 27.733-23.467 14.933 2.133 23.467 12.8 23.467 27.733-8.533 81.067-70.4 147.2-149.333 160-46.933 8.533-93.867-4.267-132.267-32s-64-70.4-72.533-117.333c-2.133-17.067-2.133-36.267 0-53.333 2.133-12.8 12.8-21.333 25.6-21.333 2.133 0 2.133 0 4.267 0 14.933 2.133 23.467 14.933 21.333 27.733s-2.133 25.6 0 38.4c2.133 34.133 21.333 64 49.067 83.2zM509.867 512c-25.6 4.267-49.067-2.133-70.4-17.067s-34.133-36.267-38.4-61.867c-2.133-8.533-2.133-19.2 0-27.733 2.133-12.8 12.8-21.333 25.6-21.333 2.133 0 2.133 0 4.267 0 14.933 2.133 23.467 14.933 21.333 27.733 0 4.267 0 8.533 0 12.8 2.133 12.8 8.533 21.333 17.067 29.867 8.533 6.4 21.333 10.667 32 8.533 19.2-2.133 34.133-19.2 36.267-40.533 2.133-14.933 12.8-23.467 27.733-23.467 14.933 2.133 23.467 12.8 23.467 27.733-4.267 42.667-36.267 78.933-78.933 85.333z" />
<glyph unicode="&#xe92c;" glyph-name="icon_home-a-selected" d="M919.467 384l-358.4 435.2c-6.4 8.533-12.8 17.067-19.2 23.467v0 0c-6.4 6.4-14.933 10.667-21.333 10.667-46.933 2.133-85.333-64-108.8-89.6-108.8-119.467-320-379.733-320-379.733l25.6-42.667c0 0 23.467 29.867 61.867 72.533v-264.533c0 0-4.267-40.533 21.333-64s42.667-21.333 42.667-21.333h168.533c0 0 0 23.467 0 57.6v198.4c0 21.333 4.267 40.533 53.333 42.667h93.867c0 0 42.667-6.4 42.667-42.667 0-98.133 0-253.867 0-253.867h21.333l160-2.133 6.4 8.533c23.467 6.4 44.8 19.2 44.8 55.467 0 12.8 0 64 0 64v224l59.733-72.533 25.6 40.533z" />
<glyph unicode="&#xe92d;" glyph-name="icon_home-b" d="M940.8 588.8l-426.667 256-4.267-8.533-426.667-245.333 25.6-42.667 76.8 44.8v-460.8c0-40.533 34.133-74.667 74.667-74.667h501.333c40.533 0 74.667 34.133 74.667 74.667v458.667l76.8-46.933 27.733 44.8zM625.067 106.667h-226.133v183.467c0 21.333 17.067 38.4 38.4 38.4h151.467c21.333 0 38.4-17.067 38.4-38.4v-183.467zM787.2 132.267c0-12.8-10.667-25.6-25.6-25.6h-113.067v183.467c0 34.133-27.733 61.867-61.867 61.867h-151.467c-34.133 0-61.867-27.733-61.867-61.867v-183.467h-113.067c-12.8 0-25.6 10.667-25.6 25.6v488.533l281.6 162.133 270.933-162.133v-488.533z" />
<glyph unicode="&#xe92e;" glyph-name="icon_jfss" d="M827.733 819.2c-55.467 0-108.8 0-164.267 0-6.4 0-12.8-4.267-14.933-10.667s-2.133-12.8 2.133-17.067c34.133-36.267 55.467-85.333 55.467-140.8 0-104.533-74.667-189.867-172.8-202.667-4.267 0-8.533-4.267-8.533-10.667 0-119.467 0-238.933 0-358.4 0-6.4 4.267-10.667 8.533-10.667 93.867 0 187.733 0 281.6 0 17.067 0 29.867 12.8 32 32 10.667 219.733 19.2 441.6 29.867 661.333 2.133 32-19.2 57.6-49.067 57.6zM490.667 448c-98.133 10.667-172.8 98.133-172.8 202.667 0 55.467 21.333 104.533 55.467 140.8 4.267 4.267 6.4 10.667 2.133 17.067-2.133 6.4-8.533 10.667-14.933 10.667-55.467 0-108.8 0-164.267 0-29.867 0-53.333-25.6-51.2-55.467 10.667-219.733 19.2-441.6 29.867-661.333 0-17.067 14.933-32 32-32 93.867 0 187.733 0 281.6 0 4.267 0 8.533 4.267 8.533 10.667 0 119.467 0 238.933 0 358.4 2.133 4.267-2.133 8.533-6.4 8.533zM512 678.4c-2.133 0-4.267 0-6.4 0l-32 78.933-4.267-2.133 29.867-78.933c-8.533-4.267-14.933-14.933-14.933-25.6 0-17.067 12.8-29.867 27.733-29.867s27.733 12.8 27.733 29.867c0 14.933-12.8 27.733-27.733 27.733zM682.667 648.533c0 46.933-17.067 91.733-49.067 123.733-32 34.133-74.667 51.2-119.467 51.2s-87.467-19.2-119.467-51.2c-32-34.133-49.067-76.8-49.067-123.733s17.067-91.733 49.067-123.733c32-34.133 74.667-51.2 119.467-51.2s87.467 19.2 119.467 51.2c29.867 34.133 49.067 76.8 49.067 123.733zM512 503.467c-36.267 0-72.533 14.933-98.133 42.667s-40.533 64-40.533 104.533c0 38.4 14.933 76.8 40.533 104.533s61.867 42.667 98.133 42.667c36.267 0 72.533-14.933 98.133-42.667s40.533-64 40.533-104.533c0-38.4-14.933-76.8-40.533-104.533s-61.867-42.667-98.133-42.667z" />
<glyph unicode="&#xe92f;" glyph-name="icon_jkjc" d="M512 51.2c-219.733 0-398.933 179.2-398.933 398.933s179.2 398.933 398.933 398.933 398.933-179.2 398.933-398.933-179.2-398.933-398.933-398.933zM187.733 358.4c0-123.733 100.267-221.867 221.867-221.867s221.867 98.133 221.867 221.867c0 123.733-100.267 221.867-221.867 221.867s-221.867-100.267-221.867-221.867zM539.733 765.867c-46.933 0-83.2-36.267-83.2-83.2s36.267-83.2 83.2-83.2c46.933 0 83.2 36.267 83.2 83.2s-36.267 83.2-83.2 83.2zM742.4 672c-76.8 0-138.667-61.867-138.667-138.667s61.867-138.667 138.667-138.667c76.8 0 138.667 61.867 138.667 138.667 2.133 76.8-61.867 138.667-138.667 138.667zM678.4 430.933c-10.667 0-19.2 8.533-19.2 19.2s8.533 19.2 19.2 19.2c10.667 0 19.2-8.533 19.2-19.2s-8.533-19.2-19.2-19.2zM659.2 505.6c-10.667 0-19.2 8.533-19.2 19.2s8.533 19.2 19.2 19.2 19.2-8.533 19.2-19.2c0-10.667-8.533-19.2-19.2-19.2zM603.733 379.733c0-25.6-21.333-46.933-46.933-46.933s-46.933 21.333-46.933 46.933c0 25.6 21.333 46.933 46.933 46.933s46.933-21.333 46.933-46.933zM492.8 450.133c-10.667 0-19.2 8.533-19.2 19.2s8.533 19.2 19.2 19.2c10.667 0 19.2-8.533 19.2-19.2s-8.533-19.2-19.2-19.2zM465.067 505.6c-14.933 0-27.733 12.8-27.733 27.733s12.8 27.733 27.733 27.733c14.933 0 27.733-12.8 27.733-27.733s-12.8-27.733-27.733-27.733zM392.533 407.467c-25.6 0-46.933 21.333-46.933 46.933s21.333 46.933 46.933 46.933 46.933-21.333 46.933-46.933-21.333-46.933-46.933-46.933zM437.333 375.467c10.667 0 19.2-8.533 19.2-19.2s-8.533-19.2-19.2-19.2c-10.667 0-19.2 8.533-19.2 19.2s8.533 19.2 19.2 19.2z" />
<glyph unicode="&#xe930;" glyph-name="icon_key" d="M608 456.533c6.4 21.333 10.667 44.8 10.667 66.133 0 132.267-106.667 238.933-238.933 238.933s-238.933-106.667-238.933-238.933 106.667-238.933 238.933-238.933c38.4 0 74.667 8.533 106.667 25.6v-25.6h81.067v-53.333l81.067 25.6v-106.667h106.667v-81.067h132.267v160l-279.467 228.267zM339.2 471.467c-51.2 0-93.867 42.667-93.867 93.867s42.667 93.867 93.867 93.867 93.867-42.667 93.867-93.867-42.667-93.867-93.867-93.867z" />
<glyph unicode="&#xe931;" glyph-name="icon_kjl" d="M808.533 669.867l-68.267 68.267c-40.533 40.533-106.667 40.533-145.067 0l-379.733-377.6c-40.533-40.533-40.533-106.667 0-145.067l68.267-68.267c40.533-40.533 106.667-40.533 145.067 0l379.733 379.733c40.533 38.4 40.533 102.4 0 142.933zM785.067 548.267l-192-192-140.8 140.8-187.733-187.733c-6.4-6.4-10.667-14.933-10.667-23.467s4.267-17.067 10.667-23.467c6.4-6.4 6.4-17.067 0-23.467-4.267-4.267-8.533-4.267-12.8-4.267s-8.533 2.133-12.8 4.267c-12.8 12.8-19.2 29.867-19.2 49.067s6.4 36.267 19.2 49.067l379.733 377.6c12.8 12.8 29.867 19.2 49.067 19.2s36.267-6.4 49.067-19.2l68.267-68.267c25.6-27.733 25.6-70.4 0-98.133z" />
<glyph unicode="&#xe932;" glyph-name="icon_knowledge" d="M795.733 550.4v-294.4h-27.733v96c-25.6-21.333-66.133-40.533-115.2-51.2v27.733c68.267 17.067 115.2 44.8 115.2 76.8 0 2.133 0 4.267 0 6.4v0 123.733l-256-123.733-258.133 123.733v-123.733c0-2.133 0-4.267 0-6.4 0-51.2 115.2-93.867 258.133-93.867 14.933 0 29.867 0 42.667 2.133v-27.733c-14.933 0-27.733-2.133-42.667-2.133-113.067 0-211.2 27.733-258.133 68.267v-98.133h-27.733v296.533l-57.6 27.733v-187.733c0-12.8-10.667-21.333-21.333-21.333s-21.333 10.667-21.333 21.333v209.067l-57.6 27.733 443.733 213.333 443.733-215.467-160-74.667zM151.467 627.2l358.4-172.8 356.267 170.667-356.267 172.8-358.4-170.667zM765.867 253.867c0 0 0 0 0 0h27.733c0-2.133 0-4.267 0-6.4 0-66.133-128-121.6-285.867-121.6s-285.867 55.467-285.867 121.6c0 2.133 0 4.267 0 6.4h27.733c0 0 0 0 0 0v0c0 0 0 4.267 0 6.4 2.133-51.2 115.2-91.733 258.133-91.733s256 40.533 258.133 91.733c0-2.133 0-4.267 0-6.4v0zM251.733 260.267c0 0 0 2.133 0 0 0 2.133 0 2.133 0 0zM765.867 262.4c0 0 0-2.133 0 0 0 0 0 0 0 0zM145.067 354.133c12.8 0 21.333-10.667 21.333-21.333v-57.6c0-12.8-10.667-21.333-21.333-21.333s-21.333 10.667-21.333 21.333v57.6c0 12.8 8.533 21.333 21.333 21.333z" />
<glyph unicode="&#xe933;" glyph-name="icon-tag-b" d="M512 928c-264.533 0-480-215.467-480-480s215.467-480 480-480c264.533 0 480 215.467 480 480s-215.467 480-480 480zM727.467 123.733l-40.533 44.8c-68.267 72.533-145.067 151.467-174.933 177.067-29.867-25.6-106.667-106.667-174.933-179.2l-40.533-44.8v614.4h430.933v-612.267zM512 398.933c10.667 0 21.333 0 168.533-155.733v443.733h-337.067v-443.733c147.2 157.867 157.867 155.733 168.533 155.733z" />
<glyph unicode="&#xe934;" glyph-name="icon-tag-a" d="M91.733 928h840.533v-957.867h-42.667l-375.467 377.6h-27.733l-369.067-379.733h-25.6v960z" />
<glyph unicode="&#xe935;" glyph-name="icon-store" d="M840.533 556.8c0 0 0 0 0 0 0 2.133 0 4.267-2.133 4.267l-55.467 140.8c-10.667 29.867-38.4 46.933-70.4 46.933h-396.8c-34.133 0-59.733-17.067-68.267-44.8l-59.733-142.933c0 0 0-2.133 0-4.267-4.267-12.8-6.4-27.733-6.4-40.533 0-49.067 27.733-93.867 70.4-117.333 0 0 0 0 0 0s0 0 0 0 0 0 0 0c17.067-8.533 38.4-14.933 61.867-14.933 40.533 0 76.8 17.067 100.267 46.933 25.6-29.867 61.867-46.933 100.267-46.933s74.667 17.067 100.267 46.933c25.6-29.867 61.867-46.933 102.4-46.933 23.467 0 44.8 4.267 64 14.933 42.667 23.467 68.267 68.267 68.267 117.333-2.133 12.8-4.267 27.733-8.533 40.533zM753.067 441.6c-10.667-6.4-25.6-8.533-40.533-8.533-29.867 0-55.467 14.933-72.533 40.533-2.133 2.133-2.133 6.4-6.4 10.667s-10.667 10.667-23.467 10.667c-10.667 0-19.2-4.267-23.467-10.667-4.267-4.267-4.267-6.4-6.4-10.667-14.933-25.6-42.667-40.533-70.4-40.533-29.867 0-55.467 14.933-70.4 40.533-2.133 2.133-2.133 6.4-6.4 8.533-10.667 12.8-36.267 12.8-46.933 0-4.267-4.267-6.4-8.533-6.4-10.667-14.933-25.6-42.667-40.533-72.533-40.533-14.933 0-29.867 2.133-40.533 8.533v0 0c-27.733 14.933-44.8 42.667-44.8 74.667 0 8.533 2.133 19.2 4.267 27.733 0 0 0 2.133 0 2.133l59.733 140.8c2.133 4.267 4.267 14.933 23.467 14.933h396.8c8.533 0 21.333-2.133 25.6-14.933l55.467-138.667c0 0 0-2.133 0-2.133 2.133-8.533 4.267-19.2 4.267-27.733 6.4-32-10.667-59.733-38.4-74.667zM772.267 364.8c-12.8 0-23.467-10.667-23.467-23.467v-132.267c0-8.533-6.4-12.8-12.8-12.8h-452.267c-8.533 0-12.8 6.4-12.8 12.8v130.133c0 12.8-10.667 23.467-23.467 23.467v0c-12.8 0-23.467-10.667-23.467-23.467v-130.133c0-34.133 27.733-61.867 61.867-61.867h452.267c34.133 0 61.867 27.733 61.867 61.867v132.267c-4.267 12.8-14.933 23.467-27.733 23.467zM699.733 580.267h-384c-12.8 0-23.467-10.667-23.467-23.467s10.667-23.467 23.467-23.467h386.133c12.8 0 23.467 10.667 23.467 23.467s-10.667 23.467-25.6 23.467z" />
<glyph unicode="&#xe936;" glyph-name="icon-store-c" d="M192 825.6h659.2c14.933 0 27.733 12.8 27.733 27.733v19.2c0 14.933-12.8 27.733-27.733 27.733h-659.2c-14.933 0-27.733-12.8-27.733-27.733v-19.2c0-14.933 12.8-27.733 27.733-27.733zM992 505.6v2.133c-2.133 10.667-4.267 21.333-8.533 29.867l-74.667 251.733h-776.533l-85.333-238.933c-6.4-12.8-12.8-25.6-12.8-40.533v-2.133c0-2.133 0-6.4 0-8.533 0-57.6 46.933-104.533 104.533-104.533 42.667 0 76.8 25.6 93.867 59.733 17.067-36.267 53.333-59.733 93.867-59.733 42.667 0 76.8 25.6 93.867 59.733 17.067-36.267 53.333-59.733 93.867-59.733 42.667 0 76.8 25.6 93.867 59.733 17.067-36.267 53.333-59.733 93.867-59.733 42.667 0 76.8 25.6 93.867 59.733 17.067-36.267 53.333-59.733 93.867-59.733 57.6 0 104.533 46.933 104.533 104.533-2.133 2.133-2.133 4.267-2.133 6.4v0zM793.6 392.533c-17.067-36.267-53.333-59.733-93.867-59.733-42.667 0-76.8 25.6-93.867 59.733-17.067-36.267-53.333-59.733-93.867-59.733-42.667 0-76.8 25.6-93.867 59.733-17.067-36.267-53.333-59.733-93.867-59.733-34.133 0-66.133 17.067-85.333 44.8-19.2-25.6-49.067-44.8-85.333-44.8-10.667 0-19.2 2.133-27.733 4.267v-266.667c0-40.533 34.133-74.667 74.667-74.667h640c40.533 0 74.667 34.133 74.667 74.667v266.667c-8.533-2.133-19.2-4.267-27.733-4.267-40.533 0-76.8 25.6-93.867 59.733z" />
<glyph unicode="&#xe937;" glyph-name="icon_male" d="M868.267 791.467v0h-234.667c0 0-2.133 0-2.133-2.133v-40.533c0 0 0-2.133 2.133-2.133h145.067l-138.667-136.533c0 0 0 0 0 0-51.2 40.533-115.2 64-183.467 64-164.267 0-296.533-132.267-296.533-296.533s132.267-296.533 296.533-296.533c164.267 0 296.533 132.267 296.533 296.533 0 74.667-27.733 142.933-74.667 196.267l149.333 147.2v-162.133c0 0 0-2.133 2.133-2.133h40.533c0 0 2.133 0 2.133 2.133v192l-4.267 40.533c0 0 0 0 0 0zM452.267 130.133c-136.533 0-247.467 110.933-247.467 247.467s110.933 247.467 247.467 247.467c136.533 0 247.467-110.933 247.467-247.467 2.133-136.533-110.933-247.467-247.467-247.467z" />
<glyph unicode="&#xe938;" glyph-name="icon_minus" d="M142.933 505.6h718.933c10.667 0 19.2-8.533 19.2-19.2v-38.4c0-10.667-8.533-19.2-19.2-19.2h-718.933c-10.667 0-19.2 8.533-19.2 19.2v38.4c0 10.667 8.533 19.2 19.2 19.2z" />
<glyph unicode="&#xe939;" glyph-name="icon_more-a" d="M800 390.4c-32 0-57.6 25.6-57.6 57.6s25.6 57.6 57.6 57.6c32 0 57.6-25.6 57.6-57.6s-25.6-57.6-57.6-57.6zM512 390.4c-32 0-57.6 25.6-57.6 57.6s25.6 57.6 57.6 57.6c32 0 57.6-25.6 57.6-57.6s-25.6-57.6-57.6-57.6zM224 390.4c-32 0-57.6 25.6-57.6 57.6s25.6 57.6 57.6 57.6c32 0 57.6-25.6 57.6-57.6s-25.6-57.6-57.6-57.6z" />
<glyph unicode="&#xe93a;" glyph-name="icon-home-a" d="M104.533 307.2c-6.4 0-10.667 2.133-17.067 6.4-8.533 6.4-10.667 23.467-2.133 34.133l369.067 454.4c4.267 2.133 36.267 32 76.8 29.867 23.467 0 46.933-12.8 64-32l341.333-426.667c8.533-10.667 6.4-27.733-4.267-36.267s-27.733-6.4-36.267 4.267l-339.2 426.667c-8.533 8.533-17.067 12.8-27.733 14.933-17.067-2.133-34.133-14.933-38.4-17.067l-364.8-450.133c-6.4-6.4-12.8-8.533-21.333-8.533zM753.067 64h-128v253.867c0 6.4-2.133 17.067-6.4 21.333s-12.8 4.267-14.933 4.267h-155.733c-6.4 0-17.067-2.133-21.333-6.4s-4.267-12.8-4.267-14.933v-258.133h-128c-51.2 0-74.667 44.8-76.8 74.667v230.4c0 14.933 10.667 25.6 25.6 25.6s25.6-10.667 25.6-25.6v-228.267c0-6.4 4.267-25.6 25.6-25.6h76.8v202.667c0 8.533-2.133 34.133 17.067 53.333 8.533 10.667 27.733 23.467 59.733 23.467h149.333c8.533 0 34.133 2.133 53.333-17.067 10.667-8.533 23.467-27.733 23.467-59.733v-202.667h74.667c6.4 2.133 27.733 6.4 27.733 25.6v228.267c0 14.933 10.667 25.6 25.6 25.6s25.6-10.667 25.6-25.6v-228.267c0-53.333-49.067-72.533-74.667-76.8v0z" />
<glyph unicode="&#xe93b;" glyph-name="icon_mrmy" d="M537.6 834.133c-2.133 0-2.133 0-4.267 0 2.133 0 2.133 0 4.267 0-4.267 0-8.533 0-10.667 0 2.133 0 6.4 0 8.533 0-4.267 0-10.667 0-14.933 0-2.133 0-4.267 0-6.4 0 0 0 0 0 0 0s0 0 0 0 0 0 0 0c0-2.133 19.2-177.067 155.733-292.267 138.667-115.2 138.667-219.733 64-270.933-72.533-51.2-102.4 21.333-102.4 21.333s17.067-72.533 106.667-85.333c32-4.267 61.867 4.267 89.6 25.6 42.667 61.867 66.133 136.533 66.133 217.6 0 200.533-157.867 366.933-356.267 384zM115.2 448c0-213.333 172.8-388.267 388.267-388.267 55.467 0 110.933 12.8 157.867 34.133 0 2.133-2.133 2.133-2.133 4.267-14.933 25.6-29.867 55.467-51.2 76.8-14.933 17.067-72.533 51.2-110.933 49.067-25.6 0-85.333 2.133-119.467 8.533s-42.667 42.667-34.133 57.6c6.4 14.933 23.467 25.6 21.333 40.533 0 4.267 0 17.067-2.133 19.2-4.267 2.133-14.933 6.4-19.2 12.8-4.267 8.533 4.267 19.2 10.667 23.467 10.667 4.267 32 0 29.867 0-6.4 2.133-29.867 4.267-36.267 19.2-8.533 17.067 4.267 19.2 10.667 25.6 8.533 10.667 2.133 19.2-2.133 27.733-6.4 8.533-23.467 17.067-25.6 32-4.267 21.333 2.133 12.8 49.067 44.8 10.667 6.4 17.067 12.8 23.467 17.067 0 4.267-2.133 6.4 0 10.667 0 2.133 0 2.133 0 4.267-4.267 0-8.533 0-12.8 0-19.2 2.133-36.267 10.667-46.933 21.333 10.667-6.4 23.467-10.667 36.267-10.667 0 0 2.133 0 2.133 0-8.533 4.267-14.933 8.533-21.333 14.933 10.667-4.267 21.333-8.533 34.133-10.667-8.533 4.267-14.933 8.533-19.2 12.8 10.667-6.4 23.467-10.667 36.267-10.667 2.133 2.133 4.267 4.267 8.533 4.267 0 2.133 0 6.4 0 8.533 0 14.933 6.4 42.667 8.533 64s0 93.867 74.667 164.267c2.133 2.133 4.267 4.267 8.533 6.4-2.133 0-4.267 0-6.4 0-217.6 4.267-390.4-170.667-390.4-384zM507.733 836.267c2.133 0 2.133 0 4.267 0-2.133-2.133-2.133 0-4.267 0 0 0 0 0 0 0z" />
<glyph unicode="&#xe93c;" glyph-name="icon_notebook-a" d="M746.667 787.2h-25.6v25.6c0 12.8-10.667 25.6-25.6 25.6h-369.067c-12.8 0-25.6-10.667-25.6-25.6v-25.6h-23.467c-55.467 0-98.133-44.8-98.133-98.133v-541.867c0-55.467 44.8-98.133 98.133-98.133h469.333c55.467 0 98.133 44.8 98.133 98.133v541.867c0 53.333-44.8 98.133-98.133 98.133zM795.733 147.2c0-27.733-21.333-49.067-49.067-49.067h-469.333c-27.733 0-49.067 21.333-49.067 49.067v541.867c0 27.733 21.333 49.067 49.067 49.067h25.6v-25.6c0-12.8 10.667-25.6 25.6-25.6h369.067c12.8 0 25.6 10.667 25.6 25.6v25.6h23.467c27.733 0 49.067-21.333 49.067-49.067v-541.867zM548.267 516.267h-49.067v-98.133h-98.133v-49.067h98.133v-98.133h49.067v98.133h98.133v49.067h-98.133v98.133z" />
<glyph unicode="&#xe93d;" glyph-name="icon-store-a" d="M667.733 659.2h-324.267l-49.067-98.133c-6.4-25.6-4.267-46.933 6.4-61.867 10.667-17.067 27.733-21.333 34.133-23.467 42.667 0 61.867 23.467 72.533 42.667l4.267 10.667 12.8 2.133h19.2v-19.2c0-44.8 40.533-55.467 72.533-55.467 46.933 0 53.333 51.2 55.467 57.6l4.267 34.133h-243.2v36.267h345.6v-36.267h-102.4l23.467-23.467c32-32 70.4-46.933 81.067-49.067 19.2 0 32 6.4 40.533 14.933 14.933 17.067 12.8 42.667 12.8 51.2l-66.133 117.333zM512 930.133c-264.533 0-480-215.467-480-482.133s215.467-482.133 480-482.133c264.533 0 480 215.467 480 482.133s-215.467 482.133-480 482.133zM731.733 258.133c0-27.733-10.667-40.533-21.333-46.933-10.667-8.533-21.333-10.667-32-10.667-8.533 0-17.067 2.133-21.333 2.133h-307.2c-34.133 0-49.067 32-53.333 51.2v168.533h36.267v-162.133c2.133-4.267 6.4-21.333 19.2-21.333h311.467c4.267-2.133 19.2-4.267 25.6 0 4.267 4.267 6.4 12.8 6.4 19.2v164.267h36.267v-164.267zM748.8 469.333c-17.067-19.2-40.533-29.867-70.4-29.867h-4.267c-2.133 0-38.4 10.667-76.8 38.4-10.667-27.733-36.267-57.6-83.2-57.6-49.067 0-83.2 17.067-100.267 49.067-21.333-19.2-49.067-29.867-81.067-29.867h-2.133c-2.133 0-38.4 6.4-59.733 38.4-14.933 23.467-19.2 55.467-10.667 91.733l61.867 123.733h366.933l78.933-138.667v-2.133c0-2.133 8.533-51.2-19.2-83.2z" />
<glyph unicode="&#xe93e;" glyph-name="icon_notebook-c" d="M793.6 49.067h-563.2c-57.6 0-102.4 44.8-102.4 100.267v608c0 55.467 46.933 100.267 102.4 100.267h81.067l2.133-14.933c2.133-17.067 19.2-29.867 36.267-29.867 19.2 0 34.133 12.8 36.267 29.867l2.133 14.933h96l2.133-14.933c2.133-17.067 19.2-29.867 36.267-29.867s34.133 12.8 36.267 29.867l2.133 14.933h96l4.267-12.8c2.133-17.067 19.2-29.867 36.267-29.867 19.2 0 34.133 12.8 36.267 29.867l2.133 14.933h55.467c57.6 0 102.4-44.8 102.4-100.267v-608c2.133-55.467-44.8-102.4-100.267-102.4zM230.4 825.6c-38.4 0-68.267-32-68.267-68.267v-608c0-36.267 32-66.133 70.4-66.133h561.067c38.4 0 70.4 29.867 70.4 66.133v608c0 36.267-32 66.133-70.4 66.133h-29.867c-10.667-25.6-36.267-44.8-66.133-44.8s-55.467 17.067-66.133 44.8h-40.533c-10.667-25.6-36.267-44.8-66.133-44.8s-55.467 17.067-66.133 44.8h-40.533c-10.667-25.6-36.267-44.8-66.133-44.8s-55.467 17.067-66.133 44.8h-55.467zM727.467 554.667h-428.8c-8.533 0-17.067 6.4-17.067 17.067s6.4 17.067 17.067 17.067h428.8c8.533 0 17.067-6.4 17.067-17.067s-8.533-17.067-17.067-17.067zM727.467 420.267h-428.8c-8.533 0-17.067 6.4-17.067 17.067 0 8.533 6.4 17.067 17.067 17.067h428.8c8.533 0 17.067-6.4 17.067-17.067s-8.533-17.067-17.067-17.067zM727.467 285.867h-428.8c-8.533 0-17.067 6.4-17.067 17.067 0 8.533 6.4 17.067 17.067 17.067h428.8c8.533 0 17.067-6.4 17.067-17.067 0-8.533-8.533-17.067-17.067-17.067z" />
<glyph unicode="&#xe93f;" glyph-name="icon-stomach" d="M452.267 676.267c0 0-53.333 198.4 34.133 192 0 0 76.8 6.4 53.333-87.467 0 0 17.067-104.533 87.467-34.133s241.067 2.133 298.667-87.467c104.533-164.267 119.467-548.267-228.267-614.4-285.867-53.333-362.667 76.8-386.133 140.8s-123.733 93.867-140.8-17.067c-17.067-110.933-53.333-174.933-104.533-123.733 0 0-64 23.467-17.067 192 46.933 170.667 202.667 119.467 245.333 104.533 85.333-27.733 215.467-81.067 245.333 53.333 34.133 155.733-17.067 157.867-70.4 245.333z" />
<glyph unicode="&#xe940;" glyph-name="icon_people" d="M642.133 509.867c6.4 10.667 4.267 23.467-6.4 29.867s-23.467 4.267-29.867-6.4c-2.133-2.133-32-49.067-91.733-49.067-74.667 0-93.867 42.667-96 44.8-4.267 10.667-17.067 14.933-27.733 10.667s-14.933-17.067-10.667-27.733c2.133-2.133 32-70.4 134.4-70.4 83.2 0 125.867 64 128 68.267zM885.333 454.4c0 87.467-57.6 160-134.4 181.333-23.467 110.933-121.6 196.267-241.067 196.267-117.333 0-215.467-83.2-238.933-194.133-76.8-21.333-132.267-93.867-132.267-181.333 0-66.133 32-123.733 81.067-157.867-10.667-23.467-21.333-49.067-29.867-76.8-17.067-66.133-12.8-93.867-12.8-93.867h42.667c2.133 34.133 6.4 76.8 14.933 108.8 4.267 14.933 21.333 49.067 44.8 85.333-57.6 17.067-98.133 70.4-98.133 136.533 0 57.6 34.133 108.8 83.2 130.133 0 0 0 0 0-2.133 0-93.867 51.2-174.933 128-215.467-17.067-38.4-29.867-76.8-32-93.867-19.2-96-10.667-149.333-10.667-149.333h46.933c-2.133 27.733-2.133 81.067 8.533 145.067 10.667 46.933 32 100.267 44.8 128-78.933 25.6-134.4 100.267-134.4 185.6 0 108.8 87.467 196.267 196.267 196.267s196.267-87.467 196.267-196.267c0-87.467-57.6-162.133-136.533-187.733v0c0 0 44.8-98.133 53.333-142.933 6.4-44.8 6.4-98.133 6.4-128h40.533c0 0 10.667 81.067-10.667 149.333-12.8 44.8-32 87.467-34.133 93.867 76.8 40.533 130.133 121.6 130.133 215.467 51.2-21.333 85.333-70.4 85.333-130.133 0-64-42.667-119.467-98.133-134.4 23.467-36.267 40.533-70.4 44.8-85.333 8.533-32 12.8-74.667 14.933-108.8h42.667c0 0 6.4 27.733-12.8 96-8.533 27.733-17.067 53.333-29.867 76.8 49.067 32 81.067 89.6 81.067 153.6z" />
<glyph unicode="&#xe941;" glyph-name="icon_phone" d="M693.333 866.133h-362.667c-34.133 0-64-27.733-64-61.867v-729.6c0-34.133 27.733-61.867 64-61.867h364.8c34.133 0 64 27.733 64 61.867v729.6c-2.133 34.133-29.867 61.867-66.133 61.867zM422.4 827.733h179.2c4.267 0 8.533-6.4 8.533-14.933s-4.267-14.933-8.533-14.933h-179.2c-4.267 0-8.533 6.4-8.533 14.933s4.267 14.933 8.533 14.933zM512 74.667c-21.333 0-40.533 17.067-40.533 40.533 0 21.333 17.067 40.533 40.533 40.533 21.333 0 40.533-17.067 40.533-40.533s-19.2-40.533-40.533-40.533zM710.4 209.067h-396.8v552.533h396.8v-552.533z" />
<glyph unicode="&#xe942;" glyph-name="icon_plus" d="M870.4 430.933h-320v-322.133c0-10.667-8.533-19.2-19.2-19.2h-38.4c-10.667 0-19.2 8.533-19.2 19.2v322.133h-320c-10.667 0-19.2 8.533-19.2 19.2v38.4c0 10.667 8.533 19.2 19.2 19.2h322.133v320c0 10.667 8.533 19.2 19.2 19.2h38.4c10.667 0 19.2-8.533 19.2-19.2v-322.133h322.133c10.667 0 19.2-8.533 19.2-19.2v-38.4c-4.267-8.533-12.8-17.067-23.467-17.067z" />
<glyph unicode="&#xe943;" glyph-name="icon_praise-a" d="M836.267 437.333h-241.067c-27.733 0-51.2-23.467-51.2-51.2v-6.4c0-27.733 23.467-51.2 51.2-51.2h241.067c27.733 0 51.2 23.467 51.2 51.2v6.4c0 27.733-21.333 51.2-51.2 51.2zM576 526.933v-6.4c0-27.733 23.467-51.2 51.2-51.2h179.2c27.733 0 51.2 23.467 51.2 51.2v6.4c0 27.733-23.467 51.2-51.2 51.2h-179.2c-27.733 0-51.2-23.467-51.2-51.2zM780.8 300.8h-204.8c-27.733 0-51.2-23.467-51.2-51.2v-6.4c0-27.733 23.467-51.2 51.2-51.2h204.8c27.733 0 51.2 23.467 51.2 51.2v6.4c2.133 27.733-21.333 51.2-51.2 51.2zM727.467 151.467h-140.8c-27.733 0-51.2-23.467-51.2-51.2v-6.4c0-27.733 23.467-51.2 51.2-51.2h140.8c27.733 0 38.4 23.467 38.4 51.2v6.4c0 29.867-8.533 51.2-38.4 51.2zM561.067 170.667c-34.133 6.4-57.6 36.267-57.6 72.533v6.4c0 32 19.2 59.733 49.067 70.4-19.2 12.8-29.867 36.267-29.867 59.733v6.4c0 38.4 27.733 68.267 64 72.533-19.2 12.8-32 36.267-32 59.733v6.4c0 40.533 34.133 74.667 74.667 74.667h10.667c12.8 14.933 6.4 10.667 14.933 23.467 32 40.533 115.2 147.2 74.667 198.4-40.533 49.067-72.533 51.2-136.533-12.8-25.6-25.6-23.467-25.6-70.4-76.8-40.533-44.8-115.2-153.6-275.2-196.267-4.267 0-6.4-2.133-10.667-2.133 0 0 0 0 0 0v0c-21.333-8.533-36.267-27.733-36.267-51.2v-279.467c0-27.733 21.333-44.8 49.067-66.133 34.133-29.867 132.267-104.533 283.733-91.733-12.8 12.8-19.2 29.867-19.2 49.067v6.4c-2.133 32 19.2 59.733 46.933 70.4z" />
<glyph unicode="&#xe944;" glyph-name="icon_praise-b" d="M680.533 520.533c-12.8 0-25.6-6.4-25.6-6.4l-4.267-2.133h-93.867v19.2c8.533 0 14.933 12.8 17.067 21.333 10.667 40.533 0 113.067-21.333 125.867-34.133 19.2-57.6 25.6-68.267 12.8-10.667-10.667-10.667-32-8.533-40.533v-4.267c-12.8-104.533-74.667-119.467-110.933-119.467-6.4 0-12.8 0-17.067 2.133v-219.733c87.467-44.8 192-51.2 245.333-51.2 21.333 0 34.133 2.133 34.133 2.133 19.2 0 34.133 6.4 42.667 17.067 21.333 23.467 21.333 64 21.333 64v0l19.2 110.933c2.133 29.867-4.267 53.333-14.933 64-2.133 0-8.533 4.267-14.933 4.267zM501.333 919.467c-264.533 0-480-215.467-480-480 0-266.667 215.467-482.133 480-482.133s480 215.467 480 482.133c0 264.533-215.467 480-480 480zM281.6 302.933h-19.2v241.067h19.2v-241.067zM731.733 448l-19.2-108.8c0-6.4 0-49.067-25.6-76.8-14.933-14.933-32-21.333-55.467-21.333 0 0-12.8-2.133-36.267-2.133-57.6 0-168.533 6.4-260.267 57.6l-4.267 2.133v251.733l10.667-4.267c0 0 10.667-2.133 23.467-2.133 36.267 0 81.067 17.067 91.733 102.4 0 6.4-2.133 36.267 12.8 53.333 17.067 19.2 49.067 17.067 91.733-8.533 29.867-17.067 42.667-100.267 29.867-145.067-2.133-6.4-4.267-12.8-6.4-17.067h61.867c4.267 2.133 19.2 8.533 32 8.533s23.467-4.267 32-12.8c14.933-14.933 21.333-40.533 21.333-76.8z" />
<glyph unicode="&#xe945;" glyph-name="icon_praise-c" d="M697.6 40.533c-100.267 0-290.133 12.8-450.133 98.133l-8.533 4.267v441.6l19.2-6.4c0 0 17.067-4.267 40.533-4.267 61.867 0 140.8 32 160 179.2 0 10.667-4.267 61.867 23.467 91.733 29.867 34.133 83.2 29.867 157.867-14.933 51.2-32 72.533-172.8 51.2-253.867-4.267-10.667-6.4-21.333-10.667-27.733h106.667c8.533 4.267 32 14.933 57.6 14.933 21.333 0 40.533-8.533 55.467-23.467 23.467-25.6 36.267-70.4 32-134.4l-32-189.867c0-12.8 0-87.467-44.8-134.4-23.467-25.6-55.467-38.4-96-38.4 0 0-23.467-2.133-61.867-2.133zM270.933 162.133c151.467-78.933 332.8-89.6 426.667-89.6 36.267 0 59.733 2.133 59.733 2.133 32 0 57.6 10.667 76.8 27.733 38.4 40.533 36.267 110.933 36.267 113.067v2.133l32 192c2.133 53.333-6.4 91.733-23.467 108.8-8.533 8.533-19.2 12.8-34.133 12.8-23.467 0-44.8-12.8-44.8-12.8l-4.267-2.133h-162.133v32c17.067 0 25.6 23.467 29.867 36.267 19.2 72.533-2.133 196.267-38.4 217.6-57.6 34.133-98.133 42.667-119.467 21.333-17.067-19.2-17.067-55.467-14.933-68.267v-4.267c-23.467-181.333-130.133-209.067-192-209.067-10.667 0-21.333 0-27.733 2.133v-381.867zM121.6 573.867h32v-418.133h-32v418.133z" />
<glyph unicode="&#xe946;" glyph-name="icon_preview" d="M512 204.8c-245.333 0-443.733 243.2-443.733 243.2s198.4 243.2 443.733 243.2 443.733-243.2 443.733-243.2-198.4-243.2-443.733-243.2zM509.867 629.333c-100.267 0-181.333-81.067-181.333-181.333s81.067-181.333 181.333-181.333c100.267 0 181.333 81.067 181.333 181.333s-81.067 181.333-181.333 181.333zM509.867 328.533c-66.133 0-119.467 53.333-119.467 119.467s53.333 119.467 119.467 119.467c66.133 0 119.467-53.333 119.467-119.467s-53.333-119.467-119.467-119.467zM556.8 450.133c-10.667-19.2-27.733-34.133-46.933-42.667v-40.533c40.533 12.8 74.667 44.8 89.6 85.333h-42.667z" />
<glyph unicode="&#xe947;" glyph-name="icon_qlxjk" d="M827.733 78.933c0 0 0-10.667-21.333-23.467 0 0-136.533-59.733-324.267-55.467 0 0-183.467 8.533-298.667 64 0 0-17.067 4.267-17.067 42.667 0 0 6.4 172.8 57.6 251.733 0 0 14.933 21.333 49.067 34.133 0 0 117.333 36.267 125.867 68.267 0 0 85.333-232.533 200.533 0 0 0 0-21.333 57.6-42.667 0 0 108.8-36.267 125.867-76.8-2.133 2.133 57.6-138.667 44.8-262.4zM642.133 610.133c-2.133-14.933-8.533-21.333-12.8-23.467-8.533-70.4-70.4-153.6-136.533-153.6-55.467 0-117.333 76.8-128 153.6-4.267 2.133-10.667 8.533-12.8 23.467 0 0-14.933 55.467 6.4 44.8-14.933 85.333-4.267 113.067-4.267 113.067 25.6 64 93.867 93.867 93.867 93.867 14.933 17.067 14.933 10.667 14.933 6.4 2.133 6.4 6.4 8.533 6.4 8.533-4.267-4.267-6.4-8.533-8.533-12.8l8.533-4.267c4.267 8.533 8.533 12.8 8.533 12.8-4.267-4.267-6.4-8.533-8.533-12.8l4.267-2.133c4.267 14.933 14.933 23.467 21.333 25.6 6.4 8.533 12.8 12.8 12.8 12.8-6.4-6.4-10.667-12.8-12.8-21.333 6.4 8.533 17.067 14.933 17.067 14.933 0-17.067 17.067-32 25.6-38.4-2.133 4.267-4.267 6.4-4.267 6.4 4.267-4.267 6.4-6.4 8.533-10.667 2.133 0 2.133 0 4.267 0-4.267 4.267-6.4 6.4-6.4 6.4 4.267-2.133 6.4-6.4 8.533-8.533 2.133 0 6.4-2.133 8.533-2.133-2.133 2.133-2.133 4.267-2.133 4.267 2.133-2.133 4.267-2.133 4.267-4.267 46.933-14.933 66.133-42.667 66.133-42.667 40.533-46.933 19.2-125.867 12.8-145.067 19.2 6.4 4.267-44.8 4.267-44.8zM482.133 864h2.133c2.133 6.4 4.267 12.8 8.533 17.067-6.4-6.4-8.533-10.667-10.667-17.067z" />
<glyph unicode="&#xe948;" glyph-name="icon-star-a" d="M512 928c-264.533 0-480-215.467-480-480s215.467-480 480-480c264.533 0 480 215.467 480 480s-215.467 480-480 480zM738.133 334.933l-19.2-230.4-219.733 70.4-224-53.333-2.133 230.4-119.467 196.267 217.6 72.533 151.467 174.933 136.533-185.6 211.2-89.6-132.267-185.6zM629.333 571.733l-108.8 149.333-121.6-138.667-172.8-57.6 93.867-157.867 2.133-183.467 177.067 40.533 174.933-55.467 17.067 183.467 106.667 149.333z" />
<glyph unicode="&#xe949;" glyph-name="icon-setting" d="M541.867 832c12.8 0 21.333-10.667 21.333-21.333v-53.333c0-12.8 8.533-25.6 21.333-27.733l72.533-29.867c4.267-2.133 8.533-4.267 12.8-4.267 8.533 0 17.067 2.133 21.333 8.533l36.267 36.267c4.267 4.267 10.667 6.4 14.933 6.4s10.667-2.133 14.933-6.4l42.667-42.667c8.533-8.533 8.533-23.467 0-32l-32-36.267c-8.533-8.533-10.667-23.467-4.267-34.133l29.867-72.533c4.267-10.667 17.067-21.333 27.733-21.333h53.333c12.8 0 21.333-10.667 21.333-21.333v-59.733c0-12.8-10.667-21.333-21.333-21.333h-53.333c-12.8 0-25.6-8.533-27.733-21.333l-29.867-72.533c-6.4-10.667-4.267-25.6 4.267-34.133l36.267-36.267c8.533-8.533 8.533-23.467 0-32l-42.667-42.667c-4.267-8.533-8.533-10.667-14.933-10.667s-10.667 2.133-14.933 6.4l-38.4 36.267c-6.4 6.4-12.8 8.533-21.333 8.533-4.267 0-8.533 0-12.8-4.267l-72.533-29.867c-10.667-4.267-21.333-17.067-21.333-27.733v-53.333c0-12.8-10.667-21.333-21.333-21.333h-59.733c-12.8 0-21.333 10.667-21.333 21.333v53.333c0 12.8-10.667 25.6-21.333 27.733l-72.533 29.867c-4.267 2.133-8.533 4.267-12.8 4.267-8.533 0-17.067-2.133-21.333-8.533l-36.267-36.267c-10.667-4.267-14.933-6.4-21.333-6.4s-10.667 2.133-14.933 6.4l-42.667 42.667c-8.533 8.533-8.533 23.467 0 32l36.267 36.267c8.533 8.533 10.667 23.467 4.267 34.133l-29.867 72.533c-4.267 10.667-17.067 21.333-27.733 21.333h-53.333c-12.8 0-21.333 10.667-21.333 21.333v59.733c0 12.8 10.667 21.333 21.333 21.333h53.333c12.8 0 25.6 8.533 27.733 21.333l29.867 72.533c6.4 10.667 4.267 25.6-4.267 34.133l-36.267 36.267c-8.533 8.533-8.533 23.467 0 32l42.667 42.667c4.267 4.267 10.667 6.4 14.933 6.4s10.667-2.133 14.933-6.4l36.267-36.267c6.4-6.4 12.8-8.533 21.333-8.533 4.267 0 8.533 0 12.8 4.267l72.533 29.867c10.667 4.267 21.333 17.067 21.333 27.733v57.6c0 12.8 10.667 21.333 21.333 21.333h64zM512 302.933c81.067 0 145.067 64 145.067 145.067s-64 145.067-145.067 145.067c-81.067 0-145.067-64-145.067-145.067s64-145.067 145.067-145.067zM541.867 874.667h-59.733c-36.267 0-64-29.867-64-64v-42.667l-64-25.6-29.867 29.867c-12.8 10.667-29.867 17.067-46.933 17.067s-34.133-6.4-44.8-19.2l-42.667-42.667c-25.6-25.6-25.6-66.133 0-91.733l29.867-29.867-25.6-64h-44.8c-36.267 0-64-29.867-64-64v-59.733c0-36.267 29.867-64 64-64h42.667l25.6-64-29.867-29.867c-10.667-12.8-17.067-29.867-17.067-46.933s6.4-34.133 19.2-44.8l42.667-42.667c12.8-12.8 27.733-19.2 44.8-19.2s34.133 6.4 44.8 19.2l29.867 29.867 64-25.6v-42.667c0-36.267 29.867-64 64-64h59.733c36.267 0 64 29.867 64 64v42.667l64 25.6 29.867-29.867c12.8-12.8 27.733-19.2 44.8-19.2s34.133 6.4 46.933 19.2l42.667 42.667c12.8 12.8 19.2 27.733 19.2 44.8s-6.4 34.133-19.2 46.933l-29.867 29.867 25.6 64h42.667c36.267 0 64 29.867 64 64v59.733c0 36.267-29.867 64-64 64h-42.667l-25.6 64 29.867 29.867c12.8 12.8 19.2 27.733 19.2 44.8s-6.4 34.133-19.2 44.8l-42.667 42.667c-8.533 14.933-25.6 21.333-42.667 21.333s-34.133-6.4-44.8-19.2l-29.867-29.867-64 25.6v44.8c0 34.133-29.867 64-66.133 64v0zM512 345.6c-55.467 0-102.4 46.933-102.4 102.4s46.933 102.4 102.4 102.4c55.467 0 102.4-46.933 102.4-102.4 0-57.6-46.933-102.4-102.4-102.4v0z" />
<glyph unicode="&#xe94a;" glyph-name="icon_record-c" d="M644.267 578.133l-179.2-81.067c-38.4-6.4-68.267-40.533-68.267-83.2 0-46.933 36.267-83.2 81.067-83.2 25.6 0 49.067 12.8 64 32l2.133-2.133 100.267 217.6zM512 21.333c-234.667 0-426.667 189.867-426.667 424.533s192 424.533 426.667 424.533 426.667-189.867 426.667-424.533c0-234.667-192-424.533-426.667-424.533zM512 836.267c-215.467 0-390.4-174.933-390.4-390.4s174.933-388.267 390.4-388.267 390.4 174.933 390.4 388.267c0 215.467-174.933 390.4-390.4 390.4z" />
<glyph unicode="&#xe94b;" glyph-name="icon_right-b" d="M328.533 757.333l38.4 38.4 332.8-330.667-332.8-332.8-38.4 38.4 292.267 292.267-292.267 294.4z" />
<glyph unicode="&#xe94c;" glyph-name="icon-server-b" d="M471.467 268.8c8.533-21.333 10.667-42.667 10.667-66.133v-181.333c0-12.8-6.4-21.333-19.2-21.333h-183.467c-12.8 0-25.6 8.533-25.6 21.333v121.6c0 17.067-2.133 34.133-8.533 49.067s-14.933 29.867-27.733 42.667l-102.4 106.667c-14.933 17.067-29.867 36.267-38.4 57.6s-14.933 44.8-14.933 66.133v202.667c0 12.8 10.667 23.467 23.467 23.467s23.467-10.667 23.467-23.467v-202.667c0-17.067 4.267-34.133 10.667-49.067s17.067-29.867 27.733-42.667l102.4-106.667c14.933-17.067 27.733-36.267 36.267-57.6s12.8-44.8 12.8-66.133v-98.133h138.667v157.867c0 17.067-2.133 34.133-8.533 49.067s-14.933 29.867-25.6 42.667l-179.2 185.6c-8.533 8.533-8.533 23.467 0 32 4.267 4.267 10.667 6.4 17.067 6.4s12.8-2.133 17.067-6.4l179.2-185.6c12.8-17.067 25.6-36.267 34.133-57.6v0zM938.667 689.067c-12.8 0-23.467-10.667-23.467-23.467v-202.667c0-17.067-2.133-34.133-8.533-49.067s-14.933-29.867-27.733-42.667l-102.4-106.667c-14.933-17.067-29.867-36.267-38.4-57.6s-14.933-44.8-14.933-66.133v-98.133h-136.533v157.867c0 17.067 4.267 34.133 10.667 49.067s17.067 29.867 27.733 42.667l179.2 185.6c8.533 8.533 8.533 23.467 0 32-4.267 4.267-10.667 6.4-17.067 6.4s-12.8-2.133-17.067-6.4c0 0 0 0 0 0l-179.2-185.6c-14.933-17.067-29.867-36.267-38.4-57.6s-12.8-42.667-12.8-66.133v-179.2c0-12.8 12.8-21.333 25.6-21.333h183.467c12.8 0 21.333 8.533 21.333 21.333v121.6c0 17.067 4.267 34.133 10.667 49.067s17.067 29.867 27.733 42.667l102.4 106.667c17.067 17.067 27.733 36.267 36.267 57.6s12.8 44.8 12.8 66.133v202.667c0 12.8-8.533 21.333-21.333 21.333v0zM539.733 541.867c-2.133 0-2.133 0-4.267-2.133v-134.4c0-12.8-10.667-23.467-23.467-23.467s-23.467 10.667-23.467 23.467v138.667c0 0-2.133 0-2.133 2.133l-179.2 85.333c-12.8 6.4-23.467 14.933-34.133 25.6-8.533 10.667-17.067 23.467-21.333 38.4l-51.2 170.667c-2.133 8.533 0 17.067 6.4 23.467s17.067 8.533 23.467 4.267l192-70.4c17.067-6.4 32-17.067 42.667-29.867s19.2-29.867 21.333-46.933l27.733-157.867 57.6 142.933c6.4 12.8 12.8 25.6 23.467 36.267s23.467 17.067 36.267 23.467l164.267 68.267c10.667 4.267 34.133 2.133 34.133-21.333 0-8.533 0-8.533-14.933-70.4l-14.933-57.6c-4.267-14.933-10.667-27.733-19.2-38.4s-21.333-21.333-34.133-27.733l-206.933-102.4zM573.867 610.133l151.467 72.533c6.4 4.267 14.933 8.533 19.2 14.933s8.533 12.8 10.667 21.333l19.2 72.533-125.867-44.8c-8.533-2.133-14.933-6.4-19.2-12.8-6.4-6.4-10.667-12.8-12.8-19.2l-42.667-104.533zM467.2 605.867l-23.467 130.133c-2.133 8.533-6.4 19.2-12.8 25.6-6.4 8.533-14.933 12.8-23.467 17.067l-149.333 55.467 38.4-128c2.133-8.533 6.4-14.933 10.667-21.333s10.667-10.667 19.2-14.933l140.8-64z" />
<glyph unicode="&#xe94d;" glyph-name="icon-more-b" d="M851.2 748.8h-678.4c-14.933 0-25.6-10.667-25.6-25.6v-25.6c0-14.933 10.667-25.6 25.6-25.6h678.4c14.933 0 25.6 10.667 25.6 25.6v25.6c0 12.8-10.667 25.6-25.6 25.6zM851.2 486.4h-678.4c-14.933 0-25.6-10.667-25.6-25.6v-25.6c0-14.933 10.667-25.6 25.6-25.6h678.4c14.933 0 25.6 10.667 25.6 25.6v25.6c0 14.933-10.667 25.6-25.6 25.6zM851.2 226.133h-678.4c-14.933 0-25.6-10.667-25.6-25.6v-25.6c0-14.933 10.667-25.6 25.6-25.6h678.4c14.933 0 25.6 10.667 25.6 25.6v25.6c0 12.8-10.667 25.6-25.6 25.6z" />
<glyph unicode="&#xe94e;" glyph-name="icon_selected" d="M925.867 642.133c10.667 10.667 14.933 25.6 12.8 40.533s-8.533 27.733-21.333 36.267l-102.4 78.933c-25.6 19.2-59.733 14.933-81.067-8.533l-309.333-366.933-147.2 119.467c-27.733 23.467-70.4 21.333-96-4.267l-78.933-74.667c-10.667-10.667-17.067-25.6-17.067-40.533s8.533-29.867 19.2-38.4l296.533-243.2c10.667-8.533 25.6-14.933 42.667-12.8 14.933 2.133 29.867 8.533 38.4 19.2l443.733 494.933z" />
<glyph unicode="&#xe94f;" glyph-name="icon_selected-b" d="M832 610.133l-381.867-381.867c-6.4-6.4-19.2-6.4-25.6 0l-253.867 253.867c-6.4 6.4-6.4 19.2 0 25.6l25.6 25.6c6.4 6.4 19.2 6.4 25.6 0l215.467-215.467 343.467 343.467c6.4 6.4 19.2 6.4 25.6 0l25.6-25.6c6.4-8.533 6.4-19.2 0-25.6z" />
<glyph unicode="&#xe950;" glyph-name="icon_server" d="M501.333 98.133h-330.667c-17.067 0-29.867 12.8-29.867 29.867v330.667c0 198.4 162.133 360.533 360.533 360.533h330.667c17.067 0 29.867-12.8 29.867-29.867v-330.667c0-198.4-162.133-360.533-360.533-360.533zM802.133 759.467h-300.8c-166.4 0-300.8-134.4-300.8-300.8v-300.8h300.8c166.4 0 300.8 134.4 300.8 300.8v300.8zM620.8 637.867c0 34.133 27.733 59.733 59.733 59.733s59.733-27.733 59.733-59.733-27.733-59.733-59.733-59.733-59.733 27.733-59.733 59.733z" />
<glyph unicode="&#xe951;" glyph-name="icon-scancode" d="M881.067 780.8v-145.067h44.8v145.067c0 44.8-36.267 81.067-81.067 81.067h-153.6v-44.8h153.6c19.2 0 36.267-17.067 36.267-36.267zM142.933 780.8c0 21.333 17.067 36.267 36.267 36.267h149.333v44.8h-149.333c-44.8 0-81.067-36.267-81.067-81.067v-145.067h44.8v145.067zM881.067 115.2c0-21.333-17.067-36.267-36.267-36.267h-153.6v-44.8h153.6c44.8 0 81.067 36.267 81.067 81.067v157.867h-44.8v-157.867zM142.933 115.2v157.867h-44.8v-157.867c0-44.8 36.267-81.067 81.067-81.067h149.333v44.8h-149.333c-19.2 0-36.267 17.067-36.267 36.267zM992 448c0-11.782-214.903-21.333-480-21.333s-480 9.551-480 21.333c0 11.782 214.903 21.333 480 21.333s480-9.551 480-21.333z" />
<glyph unicode="&#xe952;" glyph-name="icon_smzl" d="M870.4 499.2v-162.133h-27.733v89.6h-8.533c-4.267-4.267-74.667-4.267-91.733 0s-102.4 53.333-119.467 53.333c-14.933 2.133-262.4-4.267-264.533 0s-38.4 27.733-64 27.733-55.467-44.8-55.467-44.8h-42.667l-8.533-108.8h-27.733v253.867h-64v-430.933h72.533v81.067h691.2v-81.067h81.067v322.133h-70.4zM322.133 558.933h85.333v27.733h-49.067l57.6 91.733h-91.733v-21.333h49.067l-57.6-98.133h6.4zM445.867 558.933h98.133v34.133h-57.6l66.133 108.8h-106.667v-25.6h57.6l-66.133-117.333h8.533zM597.333 558.933h123.733v42.667h-74.667l85.333 134.4h-134.4v-32h72.533l-81.067-145.067h8.533z" />
<glyph unicode="&#xe953;" glyph-name="icon-scancode-b" d="M558.933 322.133h59.733v-59.733h-59.733v59.733zM309.333 379.733h113.067v-113.067h-113.067v113.067zM512 930.133c-264.533 0-480-215.467-480-482.133s215.467-482.133 480-482.133c264.533 0 480 215.467 480 482.133s-215.467 482.133-480 482.133zM546.133 686.933h200.533v-145.067h-36.267v108.8h-164.267v36.267zM273.067 686.933h217.6v-36.267h-181.333v-108.8h-36.267v145.067zM456.533 230.4h-185.6v185.6h185.6v-185.6zM654.933 228.267h-132.267v132.267h132.267v-132.267zM744.533 232.533h-36.267v181.333h36.267v-181.333zM507.733 458.667c-140.8 0-253.867 8.533-253.867 19.2s113.067 19.2 253.867 19.2 253.867-8.533 253.867-19.2c2.133-10.667-113.067-19.2-253.867-19.2z" />
<glyph unicode="&#xe954;" glyph-name="icon_star-b" d="M761.6 87.467l-251.733 78.933-256-59.733-2.133 264.533-136.533 226.133 249.6 83.2 172.8 198.4 155.733-213.333 245.333-102.4-153.6-213.333-23.467-262.4zM512 224l200.533-64 17.067 209.067 121.6 170.667-194.133 81.067-123.733 168.533-136.533-157.867-198.4-66.133 108.8-179.2 2.133-209.067 202.667 46.933z" />
<glyph unicode="&#xe955;" glyph-name="icon_star-c" d="M744.533 358.4l10.667-81.067-8.533 4.267c0-10.667-4.267-19.2-12.8-23.467s-19.2 2.133-23.467 14.933v2.133c-2.133 8.533 0 17.067 2.133 23.467l-6.4 78.933 164.267 172.8-241.067 49.067-117.333 209.067v-4.267l-117.333-206.933-236.8-49.067 160-170.667-34.133-247.467 226.133 106.667 217.6-96-4.267 36.267 42.667-19.2 6.4-53.333c-6.4-12.8-19.2-21.333-32-25.6l-228.267 108.8-234.667-108.8c-12.8 4.267-23.467 10.667-32 21.333l32 258.133-179.2 192c0 12.8 6.4 25.6 14.933 34.133l253.867 49.067 130.133 236.8c8.533 2.133 19.2 2.133 27.733 0l130.133-236.8 251.733-49.067c8.533-8.533 14.933-21.333 14.933-34.133l-177.067-192z" />
<glyph unicode="&#xe956;" glyph-name="icon-record-b" d="M550.4 377.6l-134.4 217.6 19.2-260.267c-10.667-17.067-19.2-38.4-19.2-59.733 0-59.733 46.933-106.667 106.667-106.667s106.667 46.933 106.667 106.667c0 49.067-34.133 89.6-78.933 102.4zM522.667 211.2c-36.267 0-64 27.733-64 64s27.733 64 64 64 64-27.733 64-64c0-36.267-27.733-64-64-64zM512 808.533c-230.4 0-416-185.6-416-416 0-119.467 51.2-228.267 132.267-302.933 10.667 0 19.2 2.133 23.467 4.267 6.4 4.267 8.533 17.067 6.4 29.867-72.533 68.267-119.467 164.267-119.467 273.067 0 204.8 166.4 371.2 371.2 371.2s371.2-166.4 371.2-371.2c0-106.667-44.8-200.533-117.333-268.8 0-10.667 2.133-19.2 12.8-25.6 8.533-4.267 17.067-6.4 25.6-6.4 76.8 74.667 125.867 181.333 125.867 296.533 0 228.267-185.6 416-416 416z" />
<glyph unicode="&#xe957;" glyph-name="icon-record-a" d="M512 701.867c-140.8 0-253.867-113.067-253.867-253.867 0-138.667 113.067-253.867 253.867-253.867s253.867 115.2 253.867 253.867c0 138.667-113.067 253.867-253.867 253.867zM533.333 390.4v0c-10.667-12.8-25.6-21.333-44.8-21.333-29.867 0-53.333 25.6-53.333 55.467 0 27.733 19.2 51.2 46.933 55.467l119.467 53.333-68.267-142.933zM512 930.133c-264.533 0-480-215.467-480-482.133s215.467-482.133 480-482.133c264.533 0 480 215.467 480 482.133s-215.467 482.133-480 482.133zM512 157.867c-160 0-290.133 130.133-290.133 290.133s130.133 290.133 290.133 290.133c160 0 290.133-130.133 290.133-290.133s-130.133-290.133-290.133-290.133z" />
<glyph unicode="&#xe958;" glyph-name="icon-notebook-e" d="M808.533 885.333h-586.667c-55.467 0-98.133-29.867-98.133-85.333v-689.067c0-55.467 32-100.267 91.733-100.267h590.933c53.333 0 91.733 29.867 91.733 85.333v689.067c2.133 55.467-32 100.267-89.6 100.267zM541.867 844.8h149.333v-283.733l-74.667 34.133c-2.133 0-4.267 0-6.4-2.133l-68.267-32v283.733zM302.933 51.2h-89.6c-23.467 0-44.8 19.2-44.8 44.8v704c0 23.467 19.2 44.8 44.8 44.8h89.6v-793.6zM855.467 96c0-23.467-19.2-44.8-44.8-44.8h-477.867v793.6h179.2v-309.333c0-4.267 2.133-10.667 6.4-12.8s10.667-2.133 14.933 0l83.2 40.533 83.2-40.533c2.133 0 4.267-2.133 6.4-2.133s6.4 0 8.533 2.133c4.267 2.133 6.4 8.533 6.4 12.8v309.333h89.6c23.467 0 44.8-19.2 44.8-44.8v-704z" />
<glyph unicode="&#xe959;" glyph-name="icon_tag" d="M228.267 34.133v806.4h567.467v-806.4l-55.467 57.6c-89.6 96-192 200.533-230.4 234.667-38.4-34.133-138.667-138.667-230.4-234.667l-51.2-57.6zM512 398.933c14.933 0 27.733 0 221.867-204.8v582.4h-443.733v-582.4c194.133 204.8 206.933 204.8 221.867 204.8z" />
<glyph unicode="&#xe95a;" glyph-name="icon-phone" d="M727.467 900.267h-430.933c-51.2 0-91.733-42.667-91.733-93.867v-716.8c0-51.2 40.533-93.867 91.733-93.867h430.933c51.2 0 91.733 42.667 91.733 93.867v716.8c0 51.2-40.533 93.867-91.733 93.867v0zM388.267 821.333c0 8.533 6.4 14.933 14.933 14.933h215.467c8.533 0 14.933-6.4 14.933-14.933v-32c0-8.533-6.4-14.933-14.933-14.933h-213.333c-8.533 0-14.933 6.4-14.933 14.933v32h-2.133zM512 57.6c-34.133 0-61.867 27.733-61.867 61.867s27.733 61.867 61.867 61.867c34.133 0 61.867-27.733 61.867-61.867s-27.733-61.867-61.867-61.867v0zM727.467 213.333h-430.933v531.2h430.933v-531.2z" />
<glyph unicode="&#xe95b;" glyph-name="icon-package" d="M810.667 66.133h-597.333c-38.4 0-70.4 32-70.4 68.267v627.2c0 38.4 32 68.267 70.4 68.267h597.333c38.4 0 70.4-32 70.4-68.267v-627.2c0-38.4-29.867-68.267-70.4-68.267zM213.333 772.267c-8.533 0-12.8-4.267-12.8-10.667v-627.2c0-6.4 6.4-12.8 12.8-12.8h597.333c6.4 0 12.8 4.267 12.8 12.8v627.2c0 6.4-6.4 12.8-12.8 12.8h-597.333zM509.867 544c-177.067 0-322.133 104.533-322.133 232.533h19.2c0-117.333 136.533-213.333 302.933-213.333s302.933 96 302.933 213.333h19.2c0-128-145.067-232.533-322.133-232.533z" />
<glyph unicode="&#xe95c;" glyph-name="icon_talk-a" d="M789.333 827.733h-554.667c-64 0-115.2-51.2-115.2-115.2v-418.133c0-64 51.2-115.2 115.2-115.2h388.267l192-123.733v125.867c53.333 10.667 91.733 57.6 91.733 113.067v418.133c0 64-53.333 115.2-117.333 115.2zM859.733 294.4c0-38.4-32-70.4-70.4-70.4h-21.333v-85.333l-132.267 85.333h-401.067c-38.4 0-70.4 32-70.4 70.4v418.133c0 38.4 32 70.4 70.4 70.4h554.667c38.4 0 70.4-32 70.4-70.4v-418.133zM337.067 544h70.4v-70.4h-70.4v70.4zM477.867 544h70.4v-70.4h-70.4v70.4zM616.533 544h70.4v-70.4h-70.4v70.4z" />
<glyph unicode="&#xe95d;" glyph-name="icon-notebook-d" d="M576 616.533c-6.4-6.4-14.933-10.667-23.467-10.667h-100.267c-8.533 0-17.067 4.267-23.467 10.667h-72.533c-19.2 0-34.133-14.933-34.133-34.133v-315.733c0-19.2 14.933-34.133 34.133-34.133h300.8c19.2 0 34.133 14.933 34.133 34.133v315.733c-2.133 19.2-115.2 34.133-115.2 34.133zM631.467 501.333l-100.267-153.6-8.533-14.933c-2.133-4.267-8.533-4.267-10.667-2.133l-17.067 10.667c0 0 0 0 0 0l-110.933 72.533c-4.267 2.133-4.267 8.533-2.133 10.667l8.533 14.933c2.133 4.267 8.533 4.267 10.667 2.133l104.533-68.267 96 145.067c2.133 4.267 8.533 4.267 10.667 2.133l14.933-8.533c4.267-2.133 6.4-6.4 4.267-10.667zM512 930.133c-264.533 0-480-215.467-480-482.133s215.467-482.133 480-482.133c264.533 0 480 215.467 480 482.133s-215.467 482.133-480 482.133zM723.2 266.667c0-36.267-29.867-66.133-66.133-66.133h-300.8c-36.267 0-66.133 29.867-66.133 66.133v315.733c0 36.267 29.867 66.133 66.133 66.133h61.867v36.267c0 19.2 14.933 34.133 34.133 34.133h6.4c2.133 21.333 21.333 38.4 44.8 38.4s40.533-17.067 44.8-38.4h6.4c19.2 0 34.133-14.933 34.133-34.133v-36.267h70.4c36.267 0 66.133-29.867 66.133-66.133v-315.733z" />
<glyph unicode="&#xe95e;" glyph-name="icon-star-d" d="M870.4 928h-716.8c-29.867 0-55.467-23.467-55.467-53.333v-881.067c0-12.8 10.667-25.6 25.6-25.6 6.4 0 12.8 2.133 17.067 8.533 61.867 68.267 106.667 110.933 121.6 117.333 10.667-4.267 29.867-36.267 40.533-51.2 21.333-34.133 44.8-70.4 78.933-72.533 34.133 0 57.6 34.133 83.2 70.4 12.8 19.2 36.267 51.2 46.933 51.2s32-34.133 42.667-51.2c23.467-36.267 44.8-68.267 76.8-70.4 0 0 2.133 0 2.133 0v0c34.133 0 59.733 32 89.6 66.133 14.933 19.2 38.4 46.933 53.333 51.2 10.667-8.533 38.4-38.4 93.867-110.933 6.4-8.533 14.933-12.8 25.6-12.8 17.067 0 32 14.933 32 32v878.933c-2.133 29.867-27.733 53.333-57.6 53.333v0zM859.733 59.733c-72.533 91.733-83.2 91.733-93.867 93.867-32 2.133-59.733-29.867-87.467-64-17.067-19.2-40.533-49.067-53.333-49.067-10.667 0-29.867 32-40.533 49.067-21.333 32-42.667 66.133-74.667 66.133s-53.333-32-78.933-66.133c-12.8-17.067-34.133-49.067-44.8-49.067-8.533 0-29.867 32-38.4 49.067-21.333 32-42.667 68.267-74.667 68.267-8.533 0-25.6 0-113.067-91.733v782.933c0 6.4 4.267 10.667 10.667 10.667h676.267c6.4 0 10.667-4.267 10.667-10.667l2.133-789.333zM740.267 595.2c0 0 0 0 0 0l-113.067 29.867c-23.467 34.133-49.067 70.4-72.533 104.533 0 0 0 0 0 0-12.8 14.933-25.6 23.467-40.533 23.467-10.667 0-25.6-4.267-40.533-25.6l-64-96c-27.733-8.533-55.467-17.067-85.333-23.467l-40.533-12.8c-19.2-6.4-32-14.933-36.267-27.733s-2.133-29.867 10.667-49.067c0 0 0 0 0-2.133 25.6-29.867 49.067-59.733 74.667-87.467-2.133-42.667-2.133-85.333-4.267-128-2.133-21.333 2.133-34.133 8.533-44.8 6.4-6.4 14.933-10.667 25.6-10.667 8.533 0 19.2 2.133 32 6.4l108.8 42.667c40.533-14.933 83.2-27.733 123.733-42.667 8.533-2.133 14.933-4.267 21.333-4.267 14.933 0 40.533 6.4 42.667 51.2 0 0 0 0 0 2.133-2.133 38.4-4.267 74.667-6.4 113.067v0l81.067 102.4c12.8 17.067 17.067 32 12.8 44.8-4.267 14.933-17.067 25.6-38.4 34.133v0zM704 526.933l-68.267-85.333c-2.133-2.133-2.133-4.267-2.133-6.4v-4.267c2.133-29.867 4.267-61.867 6.4-91.733-2.133-21.333-10.667-21.333-14.933-21.333s-8.533 0-12.8 2.133c-34.133 12.8-70.4 23.467-104.533 36.267-2.133 0-4.267 0-6.4 0l-91.733-36.267c-8.533-2.133-14.933-4.267-19.2-4.267s-6.4 2.133-6.4 2.133-4.267 6.4-2.133 19.2c0 0 0 0 0 0 2.133 36.267 2.133 72.533 4.267 108.8 0 2.133 0 4.267-2.133 6.4-21.333 25.6-40.533 49.067-61.867 74.667-6.4 8.533-8.533 17.067-6.4 21.333s10.667 8.533 14.933 10.667l34.133 8.533c23.467 6.4 49.067 12.8 72.533 21.333 2.133 0 4.267 2.133 6.4 4.267l53.333 81.067c4.267 4.267 8.533 10.667 17.067 10.667 6.4 0 10.667-4.267 17.067-10.667 21.333-29.867 40.533-59.733 61.867-89.6 2.133-2.133 4.267-4.267 6.4-4.267l96-23.467c10.667-4.267 14.933-8.533 17.067-12.8-2.133-2.133-4.267-8.533-8.533-17.067v0z" />
<glyph unicode="&#xe95f;" glyph-name="icon_tick-c" d="M454.4 74.667c-14.933 0-27.733 6.4-38.4 14.933l-93.867 91.733 10.667 10.667c8.533 8.533 12.8 19.2 12.8 32s-4.267 23.467-12.8 32c-17.067 17.067-49.067 17.067-68.267 0l-8.533-8.533-108.8 104.533c-10.667 10.667-14.933 23.467-14.933 38.4s6.4 27.733 14.933 38.4l388.267 377.6c21.333 19.2 55.467 19.2 76.8 0l115.2-113.067-17.067-8.533c-6.4-2.133-10.667-6.4-12.8-8.533-8.533-8.533-12.8-19.2-12.8-32s4.267-23.467 12.8-32c17.067-17.067 49.067-17.067 68.267 0 4.267 4.267 6.4 8.533 8.533 12.8l8.533 17.067 100.267-98.133c10.667-10.667 14.933-23.467 14.933-38.4s-6.4-27.733-14.933-38.4l-390.4-375.467c-10.667-10.667-23.467-17.067-38.4-17.067zM358.4 183.467l74.667-74.667c10.667-10.667 27.733-10.667 38.4 0l388.267 377.6c4.267 4.267 8.533 10.667 8.533 19.2 0 6.4-2.133 12.8-8.533 19.2l-72.533 72.533c-2.133-2.133-2.133-4.267-4.267-4.267-27.733-27.733-76.8-27.733-104.533 0-14.933 12.8-21.333 32-21.333 51.2s8.533 38.4 21.333 51.2c2.133 2.133 2.133 2.133 4.267 4.267l-89.6 87.467c-10.667 10.667-27.733 10.667-38.4 0l-388.267-377.6c-4.267-4.267-8.533-10.667-8.533-19.2 0-6.4 2.133-12.8 8.533-19.2l89.6-87.467c27.733 19.2 70.4 14.933 93.867-8.533 14.933-12.8 21.333-32 21.333-51.2 2.133-14.933-4.267-27.733-12.8-40.533zM332.8 394.667l221.867 221.867c4.267 4.267 12.8 4.267 17.067 0l17.067-17.067c4.267-4.267 4.267-12.8 0-17.067l-221.867-221.867c-4.267-4.267-12.8-4.267-17.067 0l-17.067 17.067c-6.4 4.267-6.4 12.8 0 17.067zM439.467 288l221.867 221.867c4.267 4.267 12.8 4.267 17.067 0l17.067-17.067c4.267-4.267 4.267-12.8 0-17.067l-221.867-221.867c-4.267-4.267-12.8-4.267-17.067 0l-17.067 17.067c-6.4 4.267-6.4 12.8 0 17.067z" />
<glyph unicode="&#xe960;" glyph-name="icon-notebook-b" d="M686.933 644.267h-10.667c-8.533-14.933-25.6-25.6-44.8-25.6s-36.267 10.667-44.8 25.6h-10.667c-8.533-14.933-25.6-25.6-44.8-25.6s-36.267 10.667-44.8 25.6h-10.667c-8.533-14.933-25.6-25.6-44.8-25.6s-36.267 10.667-44.8 25.6h-25.6c-17.067 0-32-12.8-32-29.867v-356.267c0-17.067 14.933-29.867 32-29.867h328.533c17.067 0 32 12.8 32 29.867v356.267c-4.267 14.933-17.067 29.867-34.133 29.867zM646.4 328.533h-249.6c-10.667 0-19.2 8.533-19.2 19.2s8.533 19.2 19.2 19.2h251.733c10.667 0 19.2-8.533 19.2-19.2s-8.533-19.2-21.333-19.2zM646.4 405.333h-249.6c-10.667 0-19.2 8.533-19.2 19.2s8.533 19.2 19.2 19.2h251.733c10.667 0 19.2-8.533 19.2-19.2s-8.533-19.2-21.333-19.2zM646.4 484.267h-249.6c-10.667 0-19.2 8.533-19.2 19.2s8.533 19.2 19.2 19.2h251.733c10.667 0 19.2-8.533 19.2-19.2s-8.533-19.2-21.333-19.2zM512 930.133c-264.533 0-480-215.467-480-482.133s215.467-482.133 480-482.133c264.533 0 480 215.467 480 482.133s-215.467 482.133-480 482.133zM757.333 258.133c0-38.4-32-68.267-70.4-68.267h-330.667c-38.4 0-70.4 29.867-70.4 68.267v356.267c0 38.4 32 68.267 70.4 68.267h55.467l2.133-17.067c0-6.4 6.4-8.533 12.8-8.533s10.667 4.267 12.8 8.533l2.133 17.067h72.533l2.133-17.067c0-6.4 6.4-8.533 12.8-8.533s10.667 4.267 12.8 8.533l2.133 17.067h72.533l2.133-17.067c0-6.4 6.4-8.533 12.8-8.533s10.667 4.267 12.8 8.533l2.133 17.067h40.533c38.4 0 70.4-29.867 70.4-68.267v-356.267z" />
<glyph unicode="&#xe961;" glyph-name="icon-maximization" d="M341.333 753.067v0zM823.467 753.067v0zM823.467 721.067v0zM823.467 238.933v0zM341.333 753.067h484.267v-516.267h-241.067c-8.533 0-17.067 6.4-17.067 17.067 0 8.533 6.4 17.067 17.067 17.067h209.067v450.133h-452.267v-183.467c0-8.533-6.4-17.067-17.067-17.067s-17.067 6.4-17.067 17.067v215.467h34.133zM341.333 294.4l339.2 339.2c0 0 0 0 2.133 2.133h-85.333c-8.533 0-17.067 6.4-17.067 17.067 0 8.533 6.4 17.067 17.067 17.067h134.4v-145.067c0-8.533-6.4-17.067-17.067-17.067-8.533 0-17.067 6.4-17.067 17.067v87.467l-332.8-341.333c-6.4-6.4-17.067-6.4-23.467 0s-6.4 17.067 0 23.467v0zM232.533 657.067h44.8v-32h-44.8v-450.133h450.133v29.867h32v-61.867h-514.133v514.133h32z" />
<glyph unicode="&#xe962;" glyph-name="icon_tjnfb" d="M855.467 117.333c0 0-217.6 392.533-226.133 401.067v264.533h32c17.067 0 29.867 12.8 29.867 29.867s-12.8 29.867-29.867 29.867h-324.267c-17.067 0-29.867-12.8-29.867-29.867s12.8-29.867 29.867-29.867h32v-270.933c-6.4-4.267-219.733-394.667-219.733-394.667-17.067-29.867-2.133-53.333 32-53.333h644.267c32 0 46.933 23.467 29.867 53.333zM590.933 782.933v-238.933h-14.933c-4.267 0-8.533 0-12.8 0h-119.467c-4.267 0-8.533 0-12.8 0h-19.2v238.933h179.2zM401.067 157.867c-29.867 0-55.467 25.6-55.467 55.467s25.6 55.467 55.467 55.467c29.867 0 55.467-25.6 55.467-55.467s-25.6-55.467-55.467-55.467zM475.733 401.067c-10.667 0-21.333 8.533-21.333 21.333 0 10.667 8.533 19.2 21.333 19.2s19.2-8.533 19.2-19.2c2.133-12.8-6.4-21.333-19.2-21.333zM580.267 277.333c-19.2 0-34.133 14.933-34.133 34.133s14.933 34.133 34.133 34.133c19.2 0 34.133-14.933 34.133-34.133 2.133-19.2-14.933-34.133-34.133-34.133z" />
<glyph unicode="&#xe963;" glyph-name="icon_tnb" d="M791.467 533.333c-23.467-12.8-44.8-12.8-66.133 4.267-29.867 25.6-59.733 32-96 0-19.2-14.933-36.267-21.333-57.6-6.4-21.333 32-44.8 38.4-78.933 2.133-19.2-14.933-36.267-17.067-57.6-2.133-34.133 36.267-64 32-96 2.133-23.467-12.8-42.667-14.933-66.133 2.133-38.4 21.333-81.067 27.733-100.267 19.2-21.333 221.867 661.333 277.333 708.267-4.267-14.933 14.933-44.8 12.8-89.6-17.067zM273.067 509.867l96-435.2h34.133l-64 435.2c29.867 29.867 59.733 36.267 96 0v-435.2h55.467v435.2c27.733 36.267 53.333 29.867 78.933 0v-435.2h55.467v435.2c32 36.267 64 29.867 98.133 0l-64-435.2h34.133l96 435.2c53.333 36.267 78.933 32 89.6 0l-166.4-445.867h-366.933l-174.933 445.867c12.8 34.133 49.067 32 102.4 0z" />
<glyph unicode="&#xe964;" glyph-name="icon-lock" d="M761.6 497.067h-81.067v108.8c0 51.2-14.933 93.867-46.933 125.867-32 34.133-72.533 49.067-119.467 49.067-49.067 0-89.6-17.067-121.6-49.067-32-34.133-46.933-74.667-46.933-125.867v-25.6c0-12.8 10.667-23.467 23.467-23.467s23.467 10.667 23.467 23.467v25.6c0 38.4 10.667 68.267 34.133 93.867 23.467 23.467 53.333 36.267 89.6 36.267s64-12.8 87.467-36.267c23.467-23.467 34.133-55.467 34.133-93.867v-108.8h-375.467c-12.8 0-23.467-10.667-23.467-23.467v-337.067c0-12.8 10.667-23.467 23.467-23.467h499.2c12.8 0 23.467 10.667 23.467 23.467v337.067c0 12.8-10.667 23.467-23.467 23.467zM738.133 160h-452.267v290.133h454.4v-290.133zM488.533 305.067v-96c0-12.8 10.667-23.467 23.467-23.467s23.467 10.667 23.467 23.467v96c19.2 8.533 32 27.733 32 46.933 0 14.933-6.4 25.6-17.067 36.267s-23.467 14.933-38.4 14.933c-14.933 0-27.733-4.267-40.533-14.933-10.667-10.667-17.067-21.333-17.067-36.267 0-19.2 14.933-38.4 34.133-46.933z" />
<glyph unicode="&#xe965;" glyph-name="icon-lock-c" d="M509.867 381.867c-23.467 0-42.667-19.2-42.667-42.667 0-12.8 6.4-38.4 14.933-57.6 6.4-17.067 12.8-27.733 27.733-27.733 17.067 0 23.467 12.8 27.733 27.733 6.4 19.2 14.933 44.8 14.933 57.6 0 23.467-19.2 42.667-42.667 42.667zM708.267 512l-49.067 2.133h-290.133v85.333c0 83.2 57.6 145.067 140.8 145.067s147.2-61.867 147.2-145.067v-17.067c0 0 4.267-14.933 21.333-14.933 21.333 0 27.733 14.933 27.733 14.933v17.067c0 106.667-87.467 194.133-194.133 194.133s-194.133-87.467-194.133-194.133v-85.333c-36.267 0-66.133-29.867-66.133-66.133v-151.467c2.133-108.8 89.6-196.267 196.267-196.267h130.133c106.667 0 194.133 87.467 194.133 194.133v151.467c0 36.267-29.867 66.133-64 66.133zM721.067 300.8c0-81.067-66.133-147.2-147.2-147.2h-119.467c-81.067 0-147.2 66.133-147.2 147.2v140.8c0 10.667 10.667 21.333 21.333 21.333h373.333c10.667 0 21.333-10.667 21.333-21.333v-140.8z" />
<glyph unicode="&#xe966;" glyph-name="icon_unfold" d="M774.4 778.667l-53.333 53.333-209.067-209.067-204.8 206.933-57.6-55.467 260.267-260.267 55.467 55.467v2.133zM774.4 305.067l-53.333 53.333-209.067-206.933-204.8 206.933-57.6-57.6 206.933-204.8v-2.133l53.333-51.2 55.467 55.467z" />
<glyph unicode="&#xe967;" glyph-name="icon_up-b" d="M221.867 279.467l-38.4 38.4 330.667 330.667 330.667-330.667-38.4-38.4-292.267 292.267-292.267-292.267z" />
</font>
</defs>
</svg>
