<?xml version="1.0" encoding="utf-8"?>
<!-- Generator: Adobe Illustrator 16.0.0, SVG Export Plug-In . SVG Version: 6.00 Build 0)  -->
<!DOCTYPE svg PUBLIC "-//W3C//DTD SVG 1.1//EN" "http://www.w3.org/Graphics/SVG/1.1/DTD/svg11.dtd">
<svg version="1.1" id="图层_1" xmlns="http://www.w3.org/2000/svg" xmlns:xlink="http://www.w3.org/1999/xlink" x="0px" y="0px"
	 width="135px" height="66px" viewBox="0 0 135 66" enable-background="new 0 0 135 66" xml:space="preserve">
<g>
	<g>
		<path d="M11.875,58.883c-2.237-1.125-3.884-2.453-4.942-3.986c-1.36,1.658-3.054,3.019-5.079,4.082
			c-0.062-0.096-0.167-0.236-0.316-0.421c-0.092-0.127-0.153-0.207-0.183-0.236c2.418-1.284,4.2-2.751,5.351-4.408l0.862,0.141
			c-0.031,0.032-0.062,0.078-0.092,0.141c-0.06,0.063-0.105,0.11-0.135,0.142c1.148,1.563,2.827,2.844,5.032,3.846
			C12.284,58.274,12.117,58.509,11.875,58.883z M3.351,59.118v-0.75h7.028v0.75H7.25v1.968h3.673v0.705H7.25v2.062h4.67v0.752H1.854
			v-0.752h4.625v-2.062H2.853v-0.705h3.626v-1.968H3.351z"/>
		<path d="M17.697,55.977v-0.702h3.628v0.702h-1.406v3.047h1.224v0.657h-1.224v3.376c0.514-0.095,0.998-0.188,1.452-0.283
			c0,0.221,0,0.47,0,0.752c-1.059,0.158-2.268,0.346-3.627,0.563l-0.091-0.703c0.241-0.032,0.649-0.095,1.224-0.189
			c0.122-0.029,0.211-0.047,0.273-0.047v-3.469h-1.316v-0.657h1.316v-3.047H17.697z M28.171,63.853
			c-1.482-1.313-2.464-2.813-2.946-4.5v4.266c0.029,0.907-0.455,1.36-1.453,1.36c-0.392,0-0.771,0-1.133,0
			c0-0.25-0.045-0.516-0.136-0.797c0.181,0.032,0.56,0.046,1.134,0.046c0.604,0.063,0.877-0.204,0.817-0.795v-2.205
			c-1.179,0.845-2.057,1.453-2.63,1.829l-0.408-0.751c1.36-0.812,2.373-1.453,3.039-1.921v-3.47h-2.857v-0.706h2.857v-2.108h0.771
			v2.108h3.219v0.706h-3.219v0.422c0.18,0.938,0.437,1.766,0.771,2.483c0.694-0.687,1.269-1.312,1.723-1.874l0.59,0.469
			c-0.333,0.374-0.953,1-1.859,1.875c0.694-0.657,0.65-0.609-0.137,0.141c0.454,0.876,1.239,1.813,2.359,2.813
			c-0.091,0.093-0.227,0.267-0.409,0.516C28.383,63.604,28.353,63.635,28.171,63.853z M23.002,60.29
			c-0.211-0.376-0.559-0.938-1.043-1.688c-0.089-0.157-0.166-0.265-0.226-0.327l0.59-0.328c0.454,0.593,0.892,1.251,1.315,1.968
			L23.002,60.29z M27.22,56.024c-0.454-0.377-0.937-0.75-1.451-1.128l0.499-0.421c0.605,0.406,1.088,0.769,1.451,1.078L27.22,56.024
			z"/>
		<path d="M40.75,56.304v-0.702h-2.767v0.702h-0.724v-0.702h-3.311v-0.656h3.311v-0.938h0.724v0.938h2.767v-0.938h0.725v0.938h3.355
			v0.656h-3.355v0.702H40.75z M34.311,58.695v-1.97h10.157v1.97h-0.772v-1.313h-8.659v1.313H34.311z M35.219,65.213v-3.328h8.298
			v3.328H42.79v-0.608h-6.846v0.608H35.219z M35.944,62.494v1.499h6.846v-1.499H35.944z M36.035,60.807v-2.438h6.71v2.438H36.035z
			 M36.761,58.979v1.218h5.213v-1.218H36.761z"/>
		<path d="M50.879,56.117V55.46h2.766c-0.362-0.437-0.726-0.842-1.087-1.22l0.634-0.327c0.301,0.281,0.725,0.705,1.269,1.266
			l-0.544,0.281h2.811c0.242-0.249,0.56-0.625,0.952-1.124c0.15-0.189,0.256-0.312,0.318-0.375l0.725,0.279
			c-0.152,0.19-0.379,0.455-0.68,0.799c-0.181,0.187-0.303,0.328-0.364,0.421h2.676v0.657h-4.49c0,0.157-0.014,0.346-0.045,0.563
			c0,0.281-0.015,0.485-0.044,0.609h4.035v0.657H55.64c-0.09,0.438-0.197,0.843-0.316,1.22h5.577v0.654h-3.673
			c0.665,0.939,1.951,1.596,3.854,1.971c-0.12,0.188-0.257,0.422-0.407,0.703c-2.117-0.5-3.538-1.391-4.262-2.674h-1.406
			c-0.515,1.063-1.965,2.003-4.354,2.813c-0.06-0.094-0.151-0.233-0.271-0.421c-0.09-0.125-0.151-0.219-0.181-0.282
			c2.055-0.624,3.355-1.327,3.899-2.11h-3.718v-0.654h4.127c0.181-0.345,0.317-0.751,0.407-1.22h-3.626v-0.657h3.718
			c0.03-0.345,0.046-0.734,0.046-1.172H50.879z M51.605,65.26c-0.181-0.188-0.378-0.375-0.589-0.562
			c1.42-0.563,2.177-1.219,2.268-1.971c0.06-0.312,0.09-0.717,0.09-1.219h0.726c0,0.532-0.031,0.985-0.091,1.359
			C53.857,63.9,53.056,64.698,51.605,65.26z M57.048,65.071v-3.563h0.77v3.563H57.048z"/>
		<path d="M74.539,60.385c-0.09-0.344-0.196-0.656-0.315-0.938c1.118-1.532,1.979-3.314,2.584-5.347l0.771,0.235
			c-0.303,0.969-0.665,1.893-1.089,2.766v8.111H75.72v-6.655C75.355,59.214,74.964,59.82,74.539,60.385z M77.399,57.946v-0.75h2.446
			c0.06-1.282,0.09-2.314,0.09-3.096h0.772c0,0.845-0.03,1.876-0.092,3.096h4.398v0.75h-3.038v5.533
			c0,0.373,0.257,0.562,0.771,0.562h0.68c0.546,0.031,0.847-0.233,0.908-0.798c0.03-0.249,0.076-0.811,0.136-1.688
			c0.272,0.093,0.53,0.188,0.771,0.281c-0.032,0.188-0.062,0.453-0.089,0.797c-0.062,0.502-0.108,0.846-0.139,1.031
			c-0.151,0.749-0.649,1.127-1.496,1.127h-0.952c-0.907,0.03-1.346-0.393-1.314-1.267v-5.579h-0.68v0.516
			c-0.152,2.657-1.149,4.892-2.993,6.702c-0.062-0.062-0.151-0.155-0.271-0.279c-0.153-0.125-0.259-0.22-0.319-0.28
			c1.753-1.72,2.691-3.783,2.812-6.189v-0.469H77.399z M83.563,56.445c-0.604-0.563-1.179-1.046-1.724-1.455l0.454-0.515
			c0.453,0.313,1.043,0.784,1.768,1.407L83.563,56.445z"/>
		<path d="M91.246,61.743v-5.298h4.353v-2.484h0.771v2.484h4.397v5.252h-0.771v-0.611h-3.626v4.221h-0.771v-4.221h-3.582v0.657
			H91.246z M92.017,57.196v3.141h3.582v-3.141H92.017z M99.995,57.196h-3.626v3.141h3.626V57.196z"/>
		<path d="M107.134,64.932l-0.408-0.704c0.332-0.312,0.832-0.78,1.496-1.406v-3.985h-1.361v-0.75h2.086v4.735
			c0.605,0.876,1.513,1.298,2.723,1.268c2.055,0.062,4.079,0.062,6.075,0c-0.031,0.093-0.076,0.231-0.136,0.42
			c-0.063,0.156-0.106,0.283-0.137,0.376c-2.268,0-4.292-0.03-6.076-0.093c-1.21,0-2.161-0.439-2.856-1.313
			C108.146,63.823,107.678,64.307,107.134,64.932z M108.902,56.586c-0.484-0.594-0.998-1.204-1.543-1.83l0.589-0.468
			c0.031,0.064,0.106,0.143,0.229,0.235c0.603,0.751,1.058,1.267,1.36,1.549L108.902,56.586z M110.715,58.134
			c-0.181-0.093-0.423-0.204-0.725-0.329c0.634-1.094,1.104-2.203,1.405-3.329l0.681,0.188c-0.121,0.44-0.257,0.891-0.407,1.361
			h1.768v-2.018h0.726v2.018h2.901v0.655h-2.901v2.063h3.446v0.705h-2.63v2.39c-0.03,0.532,0.196,0.782,0.681,0.75h0.362
			c0.423,0.032,0.681-0.203,0.77-0.702c0-0.094,0.017-0.25,0.048-0.469c0.027-0.282,0.043-0.501,0.043-0.656
			c0.303,0.124,0.546,0.217,0.727,0.279c-0.031,0.127-0.063,0.329-0.09,0.609c-0.063,0.221-0.091,0.376-0.091,0.47
			c-0.091,0.782-0.484,1.157-1.179,1.125h-0.862c-0.787,0.032-1.164-0.405-1.134-1.313v-2.483h-1.679
			c0.091,1.874-0.635,3.219-2.176,4.032c-0.151-0.22-0.317-0.423-0.499-0.611c1.422-0.687,2.07-1.829,1.95-3.421h-2.085v-0.705
			h3.672V56.68h-2.041C111.185,57.213,110.957,57.695,110.715,58.134z"/>
		<path d="M123.295,60.385c-0.092-0.344-0.198-0.656-0.317-0.938c1.117-1.532,1.979-3.314,2.584-5.347l0.771,0.235
			c-0.303,0.969-0.666,1.893-1.088,2.766v8.111h-0.772v-6.655C124.11,59.214,123.717,59.82,123.295,60.385z M126.152,57.946v-0.75
			h2.447c0.06-1.282,0.091-2.314,0.091-3.096h0.77c0,0.845-0.029,1.876-0.091,3.096h4.399v0.75h-3.037v5.533
			c0,0.373,0.256,0.562,0.771,0.562h0.681c0.543,0.031,0.845-0.233,0.904-0.798c0.032-0.249,0.078-0.811,0.137-1.688
			c0.272,0.093,0.53,0.188,0.772,0.281c-0.032,0.188-0.063,0.453-0.091,0.797c-0.063,0.502-0.107,0.846-0.137,1.031
			c-0.152,0.749-0.649,1.127-1.496,1.127h-0.953c-0.905,0.03-1.345-0.393-1.314-1.267v-5.579h-0.68v0.516
			c-0.15,2.657-1.149,4.892-2.992,6.702c-0.063-0.062-0.153-0.155-0.272-0.279c-0.152-0.125-0.257-0.22-0.318-0.28
			c1.753-1.72,2.69-3.783,2.813-6.189v-0.469H126.152z M132.318,56.445c-0.605-0.563-1.18-1.046-1.725-1.455l0.454-0.515
			c0.454,0.313,1.044,0.784,1.767,1.407L132.318,56.445z"/>
	</g>
	<g>
		<path fill="#E60012" d="M133.957,3.806c0.265-1.478-0.732-2.685-2.212-2.685L25.584,1.017c-9.929,0-19.484,8.125-21.235,18.054
			L1.401,35.758c-0.124,0.713-0.03,1.426,0.411,1.966c0.536,0.646,1.395,0.88,2.259,0.701c12.573-2.51,23.576-3.561,35.688-3.547
			c21.649,0.023,42.981,4.482,55.086,4.6c10.772,0.102,18.721-1.354,24.578-5.346c9.801-6.686,11.739-15.221,13.526-24.602
			L133.957,3.806z"/>
		<path fill="#6FBA2C" d="M121.918,35.385c-0.391,0.292-0.802,0.583-1.221,0.873c-6.001,4.089-13.795,5.909-25.274,5.909
			l-1.077-0.001c-5.217-0.052-11.935-0.865-19.706-1.809c-10.752-1.3-22.936-2.78-35.356-2.79h-0.236
			c-12.048,0-22.808,1.073-34.893,3.488c-0.297,0.058-0.604,0.099-0.913,0.11c9.962-1.24,18.614-1.025,27.435-0.488
			c20.162,1.236,42.65,6.839,60.168,6.283C108.361,46.402,118.258,39.551,121.918,35.385"/>
		<g>
			<path fill="#FFFFFF" d="M23.531,20.519c-0.654-0.01-1.327,0.418-1.627,1.074l-3.392,7.482h1.142h0.007
				c0.648,0.013,1.323-0.417,1.623-1.071l3.393-7.485h-1.14H23.531z"/>
			<path fill="#FFFFFF" d="M30.101,18.26h-0.004c-0.648-0.009-1.325,0.417-1.625,1.075l-4.417,9.74h1.145h0.006
				c0.648,0.013,1.323-0.417,1.623-1.071l4.417-9.744H30.101z"/>
			<path fill="#FFFFFF" d="M34.733,18.26h-0.005c-0.647-0.009-1.327,0.417-1.624,1.075l-4.42,9.74h1.145h0.006
				c0.652,0.013,1.327-0.417,1.625-1.071l4.42-9.744H34.733z"/>
			<path fill="#FFFFFF" d="M38.657,14.521h-7.625l8.096-3.537l0.008-0.004c0.556-0.248,1.057-0.615,1.485-1.055
				c0.559-0.578,0.972-1.292,1.152-2.075c0.014-0.065,0.026-0.13,0.038-0.196h0.003H28.291l-0.396,2.271h9.134l-9.978,4.362
				l-0.444,2.508h11.65c0.426,0,0.712,0.348,0.64,0.772l-1.495,8.467c-0.072,0.425-0.481,0.776-0.909,0.776h-2.355l-1.033,2.266l0,0
				h2.988c1.678,0,3.284-1.364,3.582-3.042l1.49-8.467C41.463,15.888,40.336,14.521,38.657,14.521"/>
			<path fill="#FFFFFF" d="M23.09,11.441c0.319,0.525,0.901,0.822,1.547,0.827h0.038h1.248l-1.313-3.49
				c-0.036-0.105-0.086-0.205-0.143-0.295c-0.322-0.53-0.899-0.826-1.547-0.829h-0.037h-1.249l1.311,3.491
				C22.981,11.245,23.029,11.345,23.09,11.441"/>
			<path fill="#FFFFFF" d="M21.875,17.502c0.326,0.528,0.903,0.824,1.548,0.831h0.04h1.248l-1.261-3.356
				c-0.041-0.102-0.087-0.201-0.144-0.296c-0.325-0.526-0.903-0.824-1.552-0.829h-0.036H20.47l1.261,3.354
				C21.772,17.31,21.821,17.409,21.875,17.502"/>
			<path fill="#FFFFFF" d="M66.565,8.743L66.565,8.743l0.628-1.071H48.658c-0.885,0-1.733,0.715-1.89,1.604L43.83,25.949
				c-0.298,1.681,0.829,3.044,2.513,3.044l14.884-0.005h-0.002c0.205,0,0.406-0.029,0.601-0.091
				c0.569-0.173,1.077-0.578,1.381-1.096v-0.007l0.625-1.068H55.44l0.627-3.556h5.236c1.675,0,3.283-1.368,3.582-3.044l0.992-5.636
				c0.098-0.546-0.271-0.996-0.818-0.996h-7.287L58.4,9.941h3.646l2.541-0.003V9.936c0.203,0,0.406-0.033,0.6-0.094
				C65.754,9.673,66.26,9.267,66.565,8.743 M48.925,9.941h7.2L55.5,13.493h-7.201L48.925,9.941z M53.17,26.726h-6.428
				c-0.43,0-0.714-0.35-0.639-0.777l0.492-2.779h7.196L53.17,26.726z M63.379,15.769l-0.769,4.356
				c-0.072,0.423-0.48,0.772-0.909,0.772H46.993l0.904-5.129H63.379z"/>
			<path fill="#FFFFFF" d="M89.274,11.158c0.088-0.014,0.175-0.033,0.265-0.061c0.566-0.171,1.072-0.577,1.377-1.098l0.004-0.003
				l0.626-1.07h-6.609l0.872-1.681l-1.25-0.003h-0.02c-0.557,0.003-1.146,0.344-1.463,0.89l0,0l-0.412,0.793h-6.818l-0.399,2.27
				h1.885l0.393,4.287h-3.888l-0.398,2.272h15.195l0,0c0.204,0,0.407-0.033,0.597-0.094c0.569-0.172,1.077-0.573,1.383-1.094
				l0.005-0.004l0.624-1.075l-3.894-0.005L89.274,11.158z M85.173,15.481h-5.266l-0.396-4.287l7.567-0.005L85.173,15.481z"/>
			<path fill="#FFFFFF" d="M73.804,7.547c-0.02,0-0.04,0.009-0.064,0.009c-0.541,0.028-1.098,0.356-1.399,0.882l0,0l-1.551,2.972
				l-2.451,4.695h1.248h0.02c0.122,0,0.245-0.023,0.363-0.056l-2.295,13.029h2.269l3.122-17.683l2.011-3.849h-1.254H73.804z"/>
			<path fill="#FFFFFF" d="M98.889,7.547h-0.017c-0.023,0-0.042,0.009-0.064,0.009c-0.544,0.028-1.098,0.356-1.399,0.882l0,0
				l-1.551,2.972l-2.454,4.695h1.253h0.017c0.121,0,0.244-0.023,0.364-0.056l-2.298,13.029h2.271l3.119-17.683l2.01-3.849H98.889z"
				/>
			<path fill="#FFFFFF" d="M88.05,19.665H74.564l-1.644,9.328H84.35c1.678,0,3.289-1.363,3.581-3.044l0.936-5.295
				C88.962,20.106,88.598,19.665,88.05,19.665 M85.66,25.949c-0.075,0.427-0.484,0.777-0.909,0.777H75.59l0.844-4.787h9.932
				L85.66,25.949z"/>
			<path fill="#FFFFFF" d="M115.06,12.133l0.491-2.784c0.075-0.418-0.207-0.762-0.625-0.762h-3.182l0.184-1.04h-1.983l-0.184,1.04
				h-2.919l-0.311,1.736h2.926l-0.32,1.81h-3.299l-0.306,1.738h3.298l-0.318,1.808h-2.92l-0.307,1.737h2.919l-0.319,1.804h-3.3
				l-0.306,1.737h3.301l-0.318,1.805h-3.298l-0.309,1.733h3.3l-0.424,2.399h-3.072l0,0c-0.588,0-1.063-0.27-1.33-0.697l-1.36-2.242
				l3.018-6.153l0.317-1.832h-3.11l4.212-6.229l0.236-1.328h-4.79l-0.357,2.024h2.225l-3.572,5.289l-0.409,2.283h3.026l-1.952,3.981
				h-2.568l1.422,2.333l-2.327,4.75h2.122l1.379-2.818l0.506,0.833c0.688,1.123,1.931,1.847,3.471,1.847h0.004h0.003h8.203l0,0
				c0.517,0,1.003-0.419,1.096-0.932l0.192-1.107h-4.594l0.421-2.399h2.804l0,0c0.154,0,0.313-0.025,0.462-0.071
				c0.435-0.131,0.823-0.439,1.055-0.838l0,0l0.479-0.825h-4.492l0.318-1.805h2.37v-0.002c0.157,0,0.313-0.024,0.462-0.072
				c0.438-0.131,0.824-0.44,1.057-0.838l0.001-0.002l0.478-0.822h-4.061l0.318-1.804h1.16c1.531,0,2.998-1.25,3.266-2.777
				l0.145-0.796c0.099-0.009,0.203-0.016,0.299-0.043c0.434-0.133,0.823-0.444,1.057-0.838v-0.004l0.479-0.824H115.06z
				 M112.882,14.639c-0.097,0.573-0.649,1.04-1.222,1.04h-1.167l0.324-1.808h2.2L112.882,14.639z M113.324,12.133h-2.202l0.317-1.81
				h2.206L113.324,12.133z"/>
		</g>
		<path opacity="0.8" fill="#FFFFFF" d="M102.67,36.196l0.117-0.838h0.187l-0.117,0.838H102.67L102.67,36.196z M103.255,32.045
			h1.438l0,0l-0.583,4.151h1.104l0.58-4.151h1.637l0.125-0.889h-4.176L103.255,32.045L103.255,32.045z M108.099,33.124
			L108.099,33.124h0.269l0.283-1.968h1.063l-0.283,1.968h1.956l0.278-1.968h1.058l-0.706,5.04h-1.062l0.298-2.113h-1.955
			l-0.297,2.113h-1.063l0.297-2.113h-0.27c-0.259,0-0.442-0.218-0.407-0.489C107.597,33.333,107.842,33.124,108.099,33.124z
			 M103.379,31.156l-0.124,0.889h-0.204l0.126-0.889H103.379L103.379,31.156z M102.787,35.358h-1.22
			c-0.629,0-0.962-0.282-0.872-0.916l0.46-3.286h-1.061l-0.471,3.329c-0.159,1.146,0.508,1.711,1.739,1.711l0,0h1.307
			L102.787,35.358L102.787,35.358z M96.187,34.029l0.124-0.863h0.727l-0.106-0.834c-0.016-0.089-0.091-0.171-0.182-0.171h-0.301
			l0.145-1.004h0.352c0.438,0,0.861,0.341,0.918,0.744l0.748,4.296h-1.19l-0.274-2.167H96.187z M72.099,33.224h0.427
			c0.23,0,0.426-0.057,0.552-0.147c0.12-0.099,0.195-0.247,0.22-0.44c0.029-0.189-0.007-0.348-0.095-0.435
			c-0.102-0.099-0.28-0.145-0.516-0.145H72.26l0.128-0.901h0.403c0.33,0,0.602,0.009,0.795,0.058
			c0.192,0.025,0.363,0.083,0.474,0.171c0.175,0.112,0.278,0.258,0.358,0.445c0.076,0.184,0.085,0.396,0.054,0.643
			c-0.039,0.261-0.128,0.504-0.276,0.707c-0.154,0.185-0.364,0.358-0.646,0.488c0.246,0.114,0.428,0.255,0.515,0.441
			c0.108,0.19,0.131,0.417,0.091,0.704c-0.063,0.476-0.245,0.817-0.552,1.048c-0.318,0.229-0.746,0.335-1.336,0.335h-0.593
			l0.13-0.894h0.447c0.24,0,0.418-0.043,0.546-0.146c0.117-0.098,0.195-0.241,0.218-0.442c0.034-0.217,0-0.36-0.09-0.46
			c-0.101-0.098-0.265-0.146-0.51-0.146c-0.154,0-0.298,0-0.446,0L72.099,33.224L72.099,33.224z M96.593,31.156l-0.145,1.004H96.19
			c-0.104,0-0.21,0.082-0.239,0.171l-0.361,0.834l0,0h0.721l-0.124,0.863h-0.963l-0.921,2.167h-1.135l1.01-2.167H94.12
			c-0.233,0-0.404-0.192-0.374-0.435c0.037-0.229,0.263-0.428,0.494-0.428l0,0h0.331l0.593-1.266
			c0.174-0.386,0.668-0.744,1.081-0.744H96.593L96.593,31.156z M88.748,33.224L88.748,33.224h0.101l0.091-0.619
			c0.12-0.86,0.772-1.448,1.694-1.448h2.465l-0.123,0.874h-2.19c-0.502,0-0.744,0.274-0.87,0.775l-0.056,0.387h2.954l-0.13,0.891
			h-2.751l0,0h-0.203l-0.058,0.459c-0.087,0.615,0.202,0.778,0.752,0.778h2.091l-0.126,0.876h-2.416
			c-0.866,0-1.472-0.503-1.334-1.481l0.088-0.632h-0.101c-0.211,0-0.388-0.202-0.354-0.43
			C88.307,33.407,88.537,33.224,88.748,33.224L88.748,33.224z M80.41,33.124L80.41,33.124h1.447l-0.132,0.959h-1.452
			c-0.272,0-0.463-0.218-0.425-0.489C79.884,33.333,80.132,33.124,80.41,33.124L80.41,33.124z M83.222,33.124L83.222,33.124h0.102
			l0.28-1.968h1.057l-0.276,1.968h1.965l0.276-1.968h1.064l-0.709,5.04h-1.06l0.298-2.113h-1.97l-0.297,2.113h-1.059l0.298-2.113
			H83.09c-0.264,0-0.447-0.218-0.407-0.489C82.718,33.333,82.964,33.124,83.222,33.124L83.222,33.124z M75,31.156L75,31.156h1.192
			l0.977,1.905l1.545-1.905h1.24l-2.348,2.809l-0.315,2.231H76.22l0.313-2.231L75,31.156z M71.126,32.057l-0.16,1.167h0.023h0.029
			h0.019h0.028l0,0h1.033l-0.129,0.886c-0.369,0-0.754,0-1.132,0l0,0l-0.165,1.193h1.132l-0.13,0.894h-2.193l0.293-2.113h-0.141
			c-0.226,0-0.398-0.202-0.365-0.43c0.031-0.246,0.258-0.429,0.485-0.429l0,0h0.141l0.292-2.067h2.201l-0.128,0.901H71.126z"/>
	</g>
</g>
</svg>
